<svg xmlns="http://www.w3.org/2000/svg" xmlns:xlink="http://www.w3.org/1999/xlink" xmlns:lucid="lucid" width="1654.16" height="985.45"><g transform="translate(-11.456790123456784 -140)" lucid:page-tab-id="0_0"><path d="M607.46 166a6 6 0 0 1 6-6h208a6 6 0 0 1 6 6v865.02a6 6 0 0 1-6 6h-208a6 6 0 0 1-6-6z" stroke="#3a414a" fill="#fff"/><path d="M603.73 969.56h67.46v67.46h-67.47v-67.46z" stroke="#fff" stroke-opacity="0" stroke-width="2" fill="#693cc5"/><path d="M658.7 1018.5l-4.1-4.14c2.48-3.7 3.6-7.5 3.6-11.97 0-11.93-9.63-21.6-21.55-21.6-8.5.05-15.74 4.6-19.43 12.28l1.62.77c4.73-9.85 16.56-14 26.4-9.27 7.02 3.37 11.2 10 11.2 17.8.05 3.97-.94 7.35-3.1 10.68l-3.42-3.42c.23-.45.4-.86.6-1.35 2.87-7.66-1.05-16.2-8.7-19.1-7.68-2.86-16.23 1-19.1 8.7h-5.95v1.8h5.45c-.23.94-.32 1.75-.32 2.7h-6.93v1.8h6.98c.1.94.22 1.75.5 2.7h-5.6v1.8h6.22c.23.5.45.9.72 1.4 3.95 7.14 13 9.66 20.14 5.7l3.3 3.28c-9.1 5.76-21.1 3.2-27.1-5.75l-1.48 1c6.6 9.88 19.93 12.58 29.87 6.06l4.14 4.13c1.66 1.66 4.36 1.66 6.03 0 1.66-1.67 1.66-4.37 0-6.03zm-22-2.65c-7.2 0-13.04-5.8-13.04-13s5.84-13.05 13.04-13.05c7.2 0 13.04 5.85 13.04 13.04 0 7.2-5.84 13-13.04 13zm20.7 7.42c-1 .9-2.53.9-3.47 0l-8.46-8.5c1.4-1.04 2.43-2.12 3.42-3.6l8.5 8.54c.98 1 .98 2.53.04 3.48-.05 0-.05 0-.05.04z" stroke="#fff" stroke-opacity="0" stroke-width="2" fill="#fff"/><path d="M645 1004.14c-.4-.84-.94-1.48-1.7-2l.6-4.4v-.23-.12c0-2.13-4.7-2.92-7.66-2.92s-7.64.8-7.64 2.92v.38l1.5 11.2c.12 2.22 5.5 2.3 6.12 2.3 1.24 0 2.27-.1 3.47-.36.4-.1.73-.2 1.1-.36 1-.4 1.5-.9 1.54-1.6l.46-3.5c.3.08.6.1.9.1.48.08.92-.14 1.15-.54.18-.27.23-.56.15-.86zm-3.65-1.02c-1.15-.46-2.55-1.06-3.88-1.7-.18-.52-.64-.87-1.2-.87-.72 0-1.3.57-1.3 1.3 0 .7.58 1.27 1.3 1.28.14 0 .27-.03.4-.08 1.53.76 2.84 1.33 4.44 1.9l-.5 3.7c-.12.1-.25.16-.4.22-.3.1-.57.2-.9.26-1.05.23-1.97.32-3.06.32-1.56.08-2.9-.16-4.34-.8l-1.26-9.36c3.84 1.03 7.36 1.03 11.2 0zm-5.1-4.87c-2.03.1-3.76-.18-5.66-.9 1.86-.86 3.6-1.2 5.66-1.1 2.04-.1 3.8.24 5.67 1.1-1.9.72-3.65 1-5.67.9z" stroke="#fff" stroke-opacity="0" stroke-width="2" fill="#fff"/><use xlink:href="#a" transform="matrix(1,0,0,1,573.7301145662848,1046.0212765957451) translate(23.29012345679012 17.77777777777778)"/><use xlink:href="#b" transform="matrix(1,0,0,1,573.7301145662848,1046.0212765957451) translate(28.814814814814817 44.44444444444444)"/><path d="M1589.14 567.23h-24.2c-.85 0-1.53-.67-1.53-1.54v-48.44c0-.87.7-1.54 1.53-1.54h24.2c.85 0 1.53.67 1.53 1.54v48.43c0 .86-.68 1.53-1.52 1.53zm-22.68-3.04h21.15v-45.44h-21.14zM1619.07 567.23h-24.2c-.85 0-1.53-.67-1.53-1.54v-48.44c0-.87.68-1.54 1.53-1.54h24.2c.84 0 1.53.67 1.53 1.54v48.43c0 .86-.7 1.53-1.53 1.53zm-22.68-3.04h21.14v-45.44h-21.15zM1589.14 513.05h-24.2c-.85 0-1.54-.67-1.54-1.52 0-.3.1-.55.22-.8l8.8-14.22c.3-.48.77-.76 1.34-.76h15.38c.84 0 1.52.68 1.52 1.53v14.26c0 .85-.68 1.52-1.52 1.52zm-21.46-3.04h19.93v-11.2h-13.02zM1619.07 513.05h-24.2c-.85 0-1.53-.67-1.53-1.52v-14.26c0-.85.68-1.53 1.52-1.53h15.4c.53 0 1 .26 1.27.7l8.82 14.3c.44.7.22 1.64-.5 2.1-.26.15-.5.2-.8.2zM1596.4 510h19.92l-6.9-11.2h-13.03z" stroke="#fff" stroke-opacity="0" fill="#3f8624"/><path d="M1565 510.8h53.83v6.9H1565v-6.9z" stroke="#fff" stroke-opacity="0" stroke-width=".32" fill="#fff" fill-opacity="0"/><path d="M1588.92 497.13h6v68.43h-6v-68.43z" stroke="#fff" stroke-opacity="0" stroke-width=".34" fill="#fff" fill-opacity="0"/><use xlink:href="#c" transform="matrix(1,0,0,1,1533.404255319149,576.2340425531917) translate(22.02469135802469 17.77777777777778)"/><path d="M91.87 274.88h-20.6c-1.5 0-2.76-1.24-2.76-2.77V251.3c0-1.53 1.27-2.77 2.78-2.77h20.6c1.5 0 2.76 1.25 2.76 2.78v20.83c0 1.54-1.25 2.78-2.77 2.78zm-17.8-5.56h15v-15.25h-15zM119.17 264.58c-8.04.03-14.58-6.46-14.6-14.5-.04-8.02 6.45-14.56 14.48-14.6 8.03-.02 14.58 6.47 14.6 14.5v.06c.04 8.03-6.45 14.5-14.48 14.54zm0-23.53h-.06c-4.97 0-8.98 4-8.98 9 0 4.96 4 8.98 9 8.98 4.96 0 8.98-4.02 8.98-9 .03-4.94-4-8.98-8.93-8.98zM89.23 238.43h-26c-1.05 0-1.93-.52-2.44-1.42-.5-.86-.5-1.87 0-2.76l13.03-21.7c.78-1.32 2.5-1.73 3.8-.94.4.24.7.52.93.93l13.03 21.7c.5.9.5 1.9 0 2.78-.5.9-1.36 1.4-2.37 1.43zm-21.12-5.56h16.24l-8.12-13.5z" stroke="#fff" stroke-opacity="0" fill="#3f8624"/><path d="M98.8 290.5c-17.68 0-45.84-4.03-46.2-14.84L40 182.32c-.24-1.56.7-3 2.24-3.34 1.53-.22 3.06.78 3.42 2.34 1.3 5.35 22.26 12.82 53.25 12.82 31 0 51.96-7.47 53.26-12.82.35-1.56 1.88-2.56 3.4-2.34 1.55.33 2.5 1.78 2.25 3.34l-12.83 93.34c0 3.68-3.4 6.8-9.78 9.37-2.95 1.1-5.54 1.9-8.6 2.56-9.67 2.1-17.9 2.9-27.8 2.9zM46.7 189.9l11.3 85.3v.35c0 3.34 15.9 9.48 40.65 9.48 9.43.1 17.32-.8 26.5-2.68 2.84-.67 5.2-1.45 7.9-2.57 5.07-2 6.25-3.8 6.25-4.34v-.23l11.54-85.18c-10.72 6.35-32.4 9.8-52.2 9.8-19.78 0-41.22-3.56-51.94-9.9z" stroke="#fff" stroke-opacity="0" fill="#3f8624"/><path d="M98.78 199.67c-26.22 0-55.74-5.95-58.68-16.98V181.18v-.37c0-12.26 31.05-20.83 58.92-20.83s58.68 8.57 58.68 20.83v.36l-.1 1.14v.35c-2.95 11.02-32.47 16.97-58.82 16.97zM45.5 181.42c1.77 5.36 22.6 12.7 53.28 12.7 30.7 0 51.52-7.34 53.28-12.7v-.75c-.24-5.4-22.23-15.12-53.28-15.12-31.04 0-52.92 9.72-53.4 15.12zM157.8 238.07c-13.15 0-42.12-13.07-60.2-21.96l2.42-5c24.98 12.28 54.42 23.68 59.48 21.52-.4-.8-2.3-3.3-11.14-8.1l-.4-.28 2.76-4.83.4.28c8.92 4.9 13.18 8.67 13.92 12.23.27 1.55-.14 3-1.15 4.23-1.7 1.54-3.8 2.2-6.1 1.94z" stroke="#fff" stroke-opacity="0" fill="#3f8624"/><path d="M98.8 219.7c-3.32 0-6.02-2.7-6.02-6.03s2.7-6.03 6.03-6.03c3.34 0 6.04 2.7 6.04 6.03-.02 3.32-2.7 6-6.03 6.02zm0-6.5c-.28 0-.5.2-.48.47 0 .53.96.53.96 0v-.06c0-.26-.2-.46-.47-.46z" stroke="#fff" stroke-opacity="0" fill="#3f8624"/><use xlink:href="#d" transform="matrix(1,0,0,1,10,299.48905656190186) translate(21.456790123456784 17.77777777777778)"/><use xlink:href="#e" transform="matrix(1,0,0,1,10,299.48905656190186) translate(117.62962962962963 17.77777777777778)"/><use xlink:href="#f" transform="matrix(1,0,0,1,10,299.48905656190186) translate(41.76543209876543 44.44444444444444)"/><use xlink:href="#g" transform="matrix(1,0,0,1,10,299.48905656190186) translate(101.02469135802468 44.44444444444444)"/><path d="M1160 710.2h107.23v107.25H1160V710.2z" stroke="#fff" stroke-opacity="0" stroke-width="2" fill="#d86613"/><path d="M1246.5 799.57h-17.62c-.57 0-1.03-.28-1.26-.78l-24.94-52.13h-10.52c-.8 0-1.43-.64-1.43-1.43V729.5c0-.77.63-1.4 1.43-1.4h22.02c.57 0 1.03.27 1.26.77l24.83 52.12h6.23c.8 0 1.43.63 1.43 1.42v15.72c0 .8-.63 1.43-1.43 1.43zm-16.7-2.86h15.27v-12.85h-5.72c-.57 0-1.03-.3-1.26-.8l-24.83-52.1h-19.68v12.86h10c.57 0 1.03.3 1.3.8z" stroke="#fff" stroke-opacity="0" stroke-width="2" fill="#fff"/><path d="M1199.28 799.57h-18.57c-.5 0-.94-.26-1.23-.65-.28-.48-.28-1-.06-1.44l19.47-40.62c.22-.52.73-.82 1.26-.82.57 0 1.05.3 1.3.78l9.3 19.16c.22.4.22.82 0 1.26l-10.15 21.42c-.2.57-.7.9-1.3.9zm-16.3-2.87h15.4l9.47-19.98-7.68-15.98z" stroke="#fff" stroke-opacity="0" stroke-width="2" fill="#fff"/><use xlink:href="#h" transform="matrix(1,0,0,1,1130,826.4468085106383) translate(28.50617283950617 17.77777777777778)"/><use xlink:href="#i" transform="matrix(1,0,0,1,1130,826.4468085106383) translate(102.45679012345678 17.77777777777778)"/><use xlink:href="#j" transform="matrix(1,0,0,1,1130,826.4468085106383) translate(13.043209876543216 44.44444444444444)"/><use xlink:href="#k" transform="matrix(1,0,0,1,1130,826.4468085106383) translate(74.70987654320989 44.44444444444444)"/><use xlink:href="#l" transform="matrix(1,0,0,1,1130,826.4468085106383) translate(111.74691358024693 44.44444444444444)"/><use xlink:href="#m" transform="matrix(1,0,0,1,1130,826.4468085106383) translate(22.364197530864196 71.11111111111111)"/><use xlink:href="#n" transform="matrix(1,0,0,1,1130,826.4468085106383) translate(64.27777777777777 71.11111111111111)"/><path d="M48.94 920h107.23v107.23H48.94V920z" stroke="#fff" stroke-opacity="0" stroke-width="2" fill="#d86613"/><path d="M135.44 1009.36h-17.62c-.57 0-1.03-.28-1.26-.78l-24.94-52.12H81.1c-.8 0-1.44-.64-1.44-1.43V939.3c0-.78.63-1.43 1.43-1.43h22.02c.57 0 1.03.3 1.26.8l24.82 52.1h6.24c.8 0 1.43.65 1.43 1.43v15.73c0 .8-.63 1.43-1.43 1.43zm-16.7-2.86H134v-12.87h-5.7c-.58 0-1.04-.28-1.27-.78l-24.83-52.12H82.52v12.87h10c.6 0 1.04.3 1.33.8z" stroke="#fff" stroke-opacity="0" stroke-width="2" fill="#fff"/><path d="M88.22 1009.36H69.64c-.5 0-.94-.26-1.23-.65-.27-.47-.27-1-.05-1.43l19.45-40.62c.23-.52.73-.83 1.27-.83.57 0 1.04.3 1.3.8l9.3 19.14c.22.4.22.83 0 1.27l-10.16 21.42c-.18.56-.68.9-1.28.9zm-16.3-2.87h15.4l9.47-20-7.7-15.97z" stroke="#fff" stroke-opacity="0" stroke-width="2" fill="#fff"/><use xlink:href="#o" transform="matrix(1,0,0,1,18.9361702127659,1036.2340425531916) translate(18.59876543209876 17.77777777777778)"/><use xlink:href="#p" transform="matrix(1,0,0,1,18.9361702127659,1036.2340425531916) translate(71.68518518518518 17.77777777777778)"/><use xlink:href="#q" transform="matrix(1,0,0,1,18.9361702127659,1036.2340425531916) translate(42.11728395061728 44.44444444444444)"/><path d="M1538.38 701.28h107.24V808.5h-107.24V701.3z" stroke="#fff" stroke-opacity="0" stroke-width="2" fill="#693cc5"/><path d="M1592 790.64c-11.76 0-24.3-3.4-24.3-9.76V728.9h2.86v51.98c0 2.84 8.17 6.92 21.44 6.92 13.27 0 21.44-4 21.44-6.92V728.9h2.87v51.98c0 6.36-12.54 9.76-24.3 9.76z" stroke="#fff" stroke-opacity="0" stroke-width="2" fill="#fff"/><path d="M1592 790.64c-11.76 0-24.3-3.4-24.3-9.76V728.9h2.86v51.98c0 2.84 8.17 6.92 21.44 6.92 13.27 0 21.44-4 21.44-6.92V728.9h2.87v51.98c0 6.36-12.54 9.76-24.3 9.76z" stroke="#fff" stroke-opacity="0" stroke-width="2" fill="#fff"/><path d="M1592 738.64c-11.76 0-24.3-3.4-24.3-9.75 0-6.32 12.54-9.75 24.3-9.75 11.76 0 24.3 3.4 24.3 9.74 0 6.33-12.54 9.74-24.3 9.74zm0-16.63c-13.27 0-21.44 4-21.44 6.9 0 2.9 8.17 6.87 21.44 6.87 13.27 0 21.44-4 21.44-6.88 0-2.87-8.17-6.9-21.44-6.9z" stroke="#fff" stroke-opacity="0" stroke-width="2" fill="#fff"/><path d="M1587.3 760.48l.65-2.8 8.67 1.98-.63 2.8-8.7-1.98z" stroke="#fff" stroke-opacity="0" stroke-width=".44" fill="#fff"/><path d="M1600.02 757.53l3.3-8.38 2.67 1.05-3.32 8.38-2.66-1.05z" stroke="#fff" stroke-opacity="0" stroke-width=".73" fill="#fff"/><path d="M1578.5 767.9l2.93-6.85 2.63 1.12-2.92 6.84-2.63-1.1z" stroke="#fff" stroke-opacity="0" stroke-width=".78" fill="#fff"/><path d="M1578.42 776.73c-2.77 0-5-2.25-5-5 0-2.77 2.23-5 5-5 2.76 0 5 2.23 5 5 0 2.75-2.24 5-5 5zm0-7.15c-1.18 0-2.14.96-2.14 2.14 0 1.18.96 2.14 2.14 2.14 1.18 0 2.14-.96 2.14-2.14 0-1.18-.96-2.14-2.14-2.14zM1584.14 763.32c-2.77 0-5-2.25-5-5 0-2.77 2.23-5 5-5 2.76 0 5 2.23 5 5 0 2.75-2.24 5-5 5zm0-7.15c-1.18 0-2.15.96-2.15 2.14 0 1.2.96 2.15 2.14 2.15 1.18 0 2.14-.96 2.14-2.14 0-1.17-.96-2.13-2.14-2.13zM1599.86 766.33c-2.76 0-5-2.24-5-5s2.24-5 5-5c2.77 0 5 2.24 5 5s-2.23 5-5 5zm0-7.14c-1.18 0-2.14.95-2.14 2.13s.96 2.14 2.14 2.14c1.18 0 2.15-.96 2.15-2.14 0-1.18-.96-2.14-2.14-2.14zM1605.58 751.32c-2.76 0-5-2.24-5-5 0-2.77 2.24-5 5-5 2.77 0 5 2.23 5 5v.06c-.04 2.75-2.26 4.93-5 4.94zm0-7.15c-1.16 0-2.1.9-2.14 2.07-.04 1.2.9 2.18 2.07 2.22 1.2.04 2.18-.9 2.22-2.08v-.07c0-1.17-.96-2.13-2.14-2.13z" stroke="#fff" stroke-opacity="0" stroke-width="2" fill="#fff"/><use xlink:href="#a" transform="matrix(1,0,0,1,1508.3829787234042,817.5106382978724) translate(43.29012345679012 17.77777777777778)"/><use xlink:href="#r" transform="matrix(1,0,0,1,1508.3829787234042,817.5106382978724) translate(43.32098765432099 44.44444444444444)"/><path d="M1619.1 307.02h-68.5c-.78 0-1.5-.7-1.5-1.5V272.2h3.08v31.78h65.34v-43.8H1576v-3.06h43.1c.78 0 1.5.7 1.5 1.5v46.9c0 .8-.72 1.5-1.5 1.5z" stroke="#fff" stroke-opacity="0" fill="#3b48cc"/><path d="M1584.83 288.55c-.33 0-.66-.12-.93-.34l-18.38-15.26 1.96-2.33 17.35 14.47 33.27-27.6 1.96 2.32-34.2 28.4c-.32.23-.65.35-1.03.35z" stroke="#fff" stroke-opacity="0" fill="#3b48cc"/><path d="M1589.87 283.22l1.96-2.32 28.2 23.45-1.95 2.32-28.2-23.45z" stroke="#fff" stroke-opacity="0" stroke-width=".64" fill="#3b48cc"/><path d="M1549.67 304.35l28.2-23.46 1.96 2.3-28.2 23.47-1.96-2.32z" stroke="#fff" stroke-opacity="0" stroke-width=".77" fill="#3b48cc"/><path d="M1560.03 267.62c1.5-.03 2.77-.26 4.2-.8v2.62c-1.52.72-2.92 1.04-4.6 1-1.93.06-3.62-.35-5.32-1.34-1.54-.94-2.62-2.16-3.35-3.8-.84-1.97-1.2-3.8-1.16-5.94-.06-2.84.5-5.28 1.75-7.8 1.1-2.26 2.56-3.9 4.66-5.25 2-1.26 4.04-1.86 6.42-1.83 1.96-.05 3.68.34 5.42 1.27 1.55.86 2.65 2 3.45 3.6.84 1.86 1.2 3.57 1.16 5.6.02 1.82-.25 3.38-.92 5.06-.5 1.38-1.23 2.45-2.35 3.4-.95.8-2 1.2-3.26 1.2-.66.03-1.26-.13-1.85-.4-.56-.3-.97-.7-1.3-1.2-.5.54-1 .9-1.66 1.2-.58.33-1.12.48-1.77.5-1.16.06-2.17-.46-2.8-1.4-.76-1.3-1.06-2.57-.97-4.05-.02-1.6.23-3 .78-4.55.4-1.27 1.03-2.28 2-3.27.67-.73 1.52-1.1 2.5-1.14 1.15 0 2.1.56 2.73 1.5l.33-1.07h2.8l-1.27 9.27c-.02.3-.02.55 0 .84-.02.3.04.6.25.85.17.2.4.3.65.3.66-.07 1.2-.44 1.53-1.03.55-.84.92-1.6 1.12-2.6.3-1.17.44-2.18.42-3.4.16-2.14-.44-4.03-1.8-5.72-1.48-1.43-3.26-2.08-5.32-1.95-1.83 0-3.38.52-4.85 1.6-1.53 1.18-2.58 2.53-3.3 4.32-.86 2.03-1.22 3.87-1.18 6.08-.14 2.32.46 4.32 1.83 6.2 1.3 1.47 3.04 2.22 5.03 2.12zm.92-5.67c.6-.02 1.14-.28 1.53-.75v-.52c-.02-.4-.02-.7 0-1.1l.82-6.04c-.4-.32-.84-.5-1.35-.52-.73 0-1.32.54-1.83 1.66-.57 1.4-.8 2.7-.73 4.23.06 2.04.54 3.05 1.55 3.05z" stroke="#fff" stroke-opacity="0" fill="#3b48cc"/><path d="M1549.9 257.93h68.88v47.28h-68.88v-47.27z" stroke="#fff" stroke-opacity="0" stroke-width=".87" fill="#fff" fill-opacity="0"/><path d="M1561.9 246.2c5.47 0 9.9 4.37 9.9 9.74 0 5.38-4.43 9.74-9.9 9.74-5.48 0-9.93-4.36-9.93-9.74 0-5.37 4.45-9.73 9.92-9.73z" stroke="#fff" stroke-opacity="0" stroke-width=".38" fill="#fff" fill-opacity="0"/><use xlink:href="#s" transform="matrix(1,0,0,1,1519.1063829787233,316.0212765957447) translate(38.31481481481482 17.77777777777778)"/><path d="M424.46 694.65a14.4 14.4 0 0 1 11.08 0l138.92 57.93a2.5 2.5 0 0 1 0 4.62l-138.92 57.94a14.4 14.4 0 0 1-11.08 0L285.54 757.2a2.5 2.5 0 0 1 0-4.62z" stroke="#3a414a" fill="#fff"/><use xlink:href="#t" transform="matrix(1,0,0,1,285.00000000000006,697.340425531915) translate(107.38154320987654 32.27777777777778)"/><use xlink:href="#u" transform="matrix(1,0,0,1,285.00000000000006,697.340425531915) translate(171.57907407407407 32.27777777777778)"/><use xlink:href="#k" transform="matrix(1,0,0,1,285.00000000000006,697.340425531915) translate(50.005 58.94444444444445)"/><use xlink:href="#v" transform="matrix(1,0,0,1,285.00000000000006,697.340425531915) translate(87.04203703703703 58.94444444444445)"/><use xlink:href="#w" transform="matrix(1,0,0,1,285.00000000000006,697.340425531915) translate(140.12845679012344 58.94444444444445)"/><use xlink:href="#x" transform="matrix(1,0,0,1,285.00000000000006,697.340425531915) translate(224.01734567901235 58.94444444444445)"/><use xlink:href="#y" transform="matrix(1,0,0,1,285.00000000000006,697.340425531915) translate(122.22722222222222 85.61111111111111)"/><path d="M156.67 973.62h57.16a6 6 0 0 0 6-6V760.9a6 6 0 0 1 6-6h41.28" stroke="#3a414a" fill="none"/><path d="M156.68 974.12h-.5v-1h.5z" stroke="#3a414a" stroke-width=".05" fill="#3a414a"/><path d="M281.88 754.9l-14.27 4.63v-9.27z" stroke="#3a414a" fill="#3a414a"/><path d="M666.8 763.33v1l-21.65-.04v-1zM577 755.4v-1h37.53v1z" stroke="#3a414a" stroke-width=".05" fill="#3a414a"/><path d="M577.02 755.4h-.57l.05-.5-.05-.5h.57z" fill="#3a414a"/><path d="M577.04 755.42h-.62l.06-.53-.06-.53h.62zm-.57-1l.06.47-.06.47h.52v-.95z" stroke="#3a414a" stroke-width=".05" fill="#3a414a"/><path d="M681.56 763.83l-14.27 4.64v-9.28z" fill="#3a414a"/><path d="M683.18 763.83l-16.4 5.32V758.5zm-15.4 3.95l12.16-3.95-12.15-3.95z" stroke="#3a414a" stroke-width=".05" fill="#3a414a"/><use xlink:href="#z" transform="matrix(1,0,0,1,614.5316766731938,748.6950354609929) translate(0 14.222222222222223)"/><path d="M708.42 791.02h-11.28c-.83 0-1.52-.67-1.52-1.5v-11.43c0-.85.7-1.52 1.52-1.52h11.28c.83 0 1.52.67 1.52 1.5v11.43c0 .85-.7 1.52-1.52 1.52zm-9.75-3.04h8.22v-8.36h-8.23zM723.37 785.38c-4.4.02-8-3.54-8-7.94-.02-4.4 3.54-7.98 7.94-8 4.4 0 8 3.54 8 7.94v.03c.03 4.4-3.53 7.97-7.93 7.98zm0-12.9h-.03c-2.73 0-4.93 2.2-4.93 4.93 0 2.74 2.2 4.94 4.94 4.94 2.73 0 4.93-2.2 4.93-4.93 0-2.7-2.2-4.9-4.9-4.9zM706.97 771.05h-14.25c-.57 0-1.05-.28-1.33-.77-.3-.48-.3-1.03 0-1.52l7.13-11.9c.43-.7 1.37-.94 2.1-.5.2.13.37.28.5.5l7.14 11.9c.27.5.27 1.04 0 1.52-.28.48-.75.76-1.3.77zM695.4 768h8.9l-4.45-7.4z" stroke="#fff" stroke-opacity="0" fill="#3f8624"/><path d="M712.2 799.57c-9.67 0-25.1-2.2-25.3-8.12l-6.9-51.13c-.13-.86.4-1.65 1.23-1.84.84-.12 1.67.43 1.87 1.3.7 2.92 12.2 7 29.17 7 16.98 0 28.47-4.08 29.18-7 .2-.87 1.03-1.42 1.87-1.3.84.2 1.35.98 1.22 1.84l-7.03 51.13c0 2.02-1.86 3.73-5.35 5.13-1.6.6-3.03 1.04-4.7 1.4-5.3 1.17-9.82 1.6-15.24 1.6zm-28.52-55.1l6.2 46.73v.2c0 1.82 8.7 5.18 22.26 5.18 5.17.06 9.5-.43 14.53-1.47 1.55-.35 2.84-.78 4.32-1.4 2.77-1.1 3.4-2.07 3.4-2.37v-.13l6.34-46.67c-5.88 3.48-17.75 5.38-28.6 5.38-10.84 0-22.6-1.95-28.46-5.43z" stroke="#fff" stroke-opacity="0" fill="#3f8624"/><path d="M712.2 749.82c-14.36 0-30.54-3.26-32.15-9.3V739.7v-.2c0-6.72 17-11.4 32.28-11.4 15.27 0 32.16 4.68 32.16 11.4v.2l-.08.62v.2c-1.6 6.04-17.78 9.3-32.2 9.3zm-29.18-10c.96 2.94 12.37 6.96 29.2 6.96 16.8 0 28.2-4.02 29.17-6.96v-.4c-.14-2.97-12.18-8.3-29.2-8.3-17 0-29 5.33-29.25 8.3zM744.55 770.86c-7.22 0-23.1-7.17-33-12.03l1.33-2.74c13.7 6.7 29.82 12.95 32.6 11.77-.23-.43-1.27-1.8-6.1-4.44l-.24-.15 1.52-2.65.22.15c4.9 2.68 7.22 4.75 7.62 6.7.15.85-.07 1.65-.63 2.3-.92.86-2.07 1.23-3.32 1.08z" stroke="#fff" stroke-opacity="0" fill="#3f8624"/><path d="M712.22 760.8c-1.82 0-3.3-1.5-3.3-3.3 0-1.84 1.48-3.3 3.3-3.3 1.82 0 3.3 1.46 3.3 3.3 0 1.8-1.48 3.28-3.3 3.3zm0-3.57c-.16 0-.28.1-.27.26 0 .28.53.28.53 0v-.05c0-.14-.12-.25-.26-.25z" stroke="#fff" stroke-opacity="0" fill="#3f8624"/><use xlink:href="#A" transform="matrix(1,0,0,1,650,808.5744680851063) translate(14.160493827160494 17.77777777777778)"/><use xlink:href="#e" transform="matrix(1,0,0,1,650,808.5744680851063) translate(67.92592592592592 17.77777777777778)"/><use xlink:href="#w" transform="matrix(1,0,0,1,650,808.5744680851063) translate(2.864197530864203 44.44444444444444)"/><use xlink:href="#B" transform="matrix(1,0,0,1,650,808.5744680851063) translate(86.75308641975309 44.44444444444444)"/><path d="M424.15 1041.24h-11.28c-.83 0-1.52-.68-1.52-1.52v-11.4c0-.85.7-1.53 1.52-1.53h11.28c.83 0 1.52.67 1.52 1.5v11.42c0 .84-.7 1.52-1.52 1.52zm-9.75-3.05h8.22v-8.36h-8.22zM439.1 1035.6c-4.4 0-8-3.54-8-7.94-.02-4.4 3.54-8 7.94-8 4.4-.02 8 3.53 8 7.93v.02c.02 4.4-3.54 7.96-7.94 7.97zm0-12.9h-.03c-2.73 0-4.93 2.2-4.93 4.92 0 2.73 2.2 4.93 4.93 4.93 2.73 0 4.93-2.2 4.93-4.93 0-2.7-2.2-4.92-4.9-4.92zM422.7 1021.27h-14.25c-.57 0-1.05-.3-1.33-.78-.28-.5-.28-1.04 0-1.53l7.14-11.9c.43-.7 1.37-.94 2.1-.5.2.13.37.28.5.5l7.14 11.9c.27.5.27 1.04 0 1.52-.28.47-.75.75-1.3.77zm-11.57-3.05h8.9l-4.45-7.4z" stroke="#fff" stroke-opacity="0" fill="#3f8624"/><path d="M427.94 1049.8c-9.68 0-25.1-2.2-25.3-8.14l-6.9-51.13c-.14-.86.38-1.65 1.22-1.83.84-.13 1.67.42 1.87 1.28.7 2.93 12.2 7.02 29.17 7.02 16.98 0 28.47-4.1 29.18-7.02.2-.86 1.03-1.4 1.87-1.28.84.18 1.35.97 1.22 1.83l-7.03 51.13c0 2.02-1.87 3.73-5.36 5.13-1.6.6-3.03 1.03-4.7 1.4-5.3 1.16-9.82 1.6-15.24 1.6zm-28.53-55.12l6.2 46.74v.18c0 1.83 8.72 5.2 22.27 5.2 5.17.05 9.5-.43 14.53-1.47 1.54-.37 2.84-.8 4.32-1.4 2.78-1.1 3.42-2.08 3.42-2.4v-.1l6.33-46.7c-5.88 3.5-17.75 5.4-28.6 5.4-10.84 0-22.6-1.97-28.46-5.45z" stroke="#fff" stroke-opacity="0" fill="#3f8624"/><path d="M427.94 1000.03c-14.37 0-30.55-3.26-32.16-9.3V989.9v-.2c0-6.7 17-11.4 32.28-11.4 15.27 0 32.16 4.7 32.16 11.4v.2l-.07.63v.2c-1.6 6.04-17.78 9.3-32.2 9.3zm-29.2-10c.97 2.94 12.38 6.96 29.2 6.96 16.8 0 28.22-4.03 29.18-6.97v-.4c-.13-2.96-12.17-8.3-29.18-8.3-17 0-29 5.34-29.26 8.3zM460.28 1021.07c-7.22 0-23.1-7.16-33-12.03l1.33-2.74c13.7 6.72 29.83 12.97 32.6 11.78-.22-.43-1.26-1.8-6.1-4.44l-.23-.15 1.52-2.66.2.15c4.9 2.67 7.23 4.74 7.63 6.7.15.84-.07 1.64-.63 2.3-.92.85-2.07 1.22-3.32 1.07z" stroke="#fff" stroke-opacity="0" fill="#3f8624"/><path d="M427.95 1011c-1.82 0-3.3-1.48-3.3-3.3 0-1.82 1.48-3.3 3.3-3.3 1.82 0 3.3 1.48 3.3 3.3 0 1.82-1.48 3.3-3.3 3.3zm0-3.56c-.16 0-.28.1-.27.26 0 .3.53.3.53 0v-.03c0-.15-.1-.26-.25-.26z" stroke="#fff" stroke-opacity="0" fill="#3f8624"/><use xlink:href="#C" transform="matrix(1,0,0,1,365.72978723404253,1058.7872340425533) translate(23.790123456790127 17.77777777777778)"/><use xlink:href="#D" transform="matrix(1,0,0,1,365.72978723404253,1058.7872340425533) translate(18.358024691358025 44.44444444444444)"/><use xlink:href="#B" transform="matrix(1,0,0,1,365.72978723404253,1058.7872340425533) translate(71.25925925925927 44.44444444444444)"/><path d="M711.6 505.07h-11.27c-.83 0-1.52-.68-1.52-1.52v-11.4c0-.85.7-1.53 1.53-1.53h11.28c.84 0 1.53.68 1.53 1.52v11.4c0 .85-.7 1.53-1.52 1.53zm-9.74-3.05h8.22v-8.35h-8.22zM726.56 499.42c-4.4.02-7.98-3.53-8-7.93-.02-4.4 3.54-8 7.94-8.02 4.4 0 8 3.54 8 7.94v.03c.02 4.4-3.54 7.96-7.94 7.97zm0-12.9h-.03c-2.73 0-4.93 2.2-4.93 4.93 0 2.73 2.2 4.93 4.93 4.93 2.73 0 4.93-2.2 4.93-4.93 0-2.7-2.2-4.92-4.9-4.92zM710.16 485.1H695.9c-.56 0-1.04-.3-1.32-.78-.27-.48-.27-1.03 0-1.52l7.14-11.9c.44-.7 1.37-.94 2.1-.5.2.13.38.28.5.5l7.14 11.9c.27.5.27 1.04 0 1.52-.28.48-.75.76-1.3.78zm-11.57-3.05h8.88l-4.44-7.4z" stroke="#fff" stroke-opacity="0" fill="#3f8624"/><path d="M715.4 513.62c-9.68 0-25.1-2.2-25.3-8.13l-6.9-51.14c-.14-.86.38-1.65 1.22-1.83.84-.13 1.68.42 1.87 1.28.7 2.94 12.2 7.03 29.16 7.03 16.98 0 28.47-4.1 29.18-7.02.2-.85 1.03-1.4 1.87-1.27.85.18 1.37.97 1.24 1.83l-7.04 51.13c0 2-1.87 3.72-5.36 5.12-1.6.6-3.03 1.04-4.7 1.4-5.3 1.17-9.82 1.6-15.24 1.6zm-28.53-55.1l6.2 46.73v.18c0 1.83 8.7 5.2 22.26 5.2 5.17.05 9.5-.43 14.53-1.47 1.55-.37 2.84-.8 4.32-1.4 2.78-1.1 3.42-2.08 3.42-2.4v-.1l6.33-46.7c-5.88 3.5-17.75 5.4-28.6 5.4-10.84 0-22.6-1.97-28.46-5.45z" stroke="#fff" stroke-opacity="0" fill="#3f8624"/><path d="M715.4 463.86c-14.37 0-30.54-3.26-32.15-9.3V453.73v-.2c0-6.7 17-11.4 32.28-11.4 15.27 0 32.15 4.7 32.15 11.4v.2l-.07.63v.2c-1.6 6.04-17.77 9.3-32.2 9.3zm-29.2-10c.98 2.94 12.38 6.96 29.2 6.96 16.8 0 28.22-4.02 29.18-6.96v-.4c-.12-2.96-12.17-8.3-29.18-8.3-17 0-29 5.34-29.26 8.3zM747.74 484.9c-7.22 0-23.1-7.16-33-12.03l1.33-2.74c13.7 6.72 29.82 12.96 32.6 11.78-.23-.42-1.27-1.8-6.1-4.43l-.23-.15 1.5-2.65.23.15c4.9 2.68 7.22 4.75 7.62 6.7.14.85-.08 1.65-.63 2.3-.93.86-2.08 1.23-3.33 1.08z" stroke="#fff" stroke-opacity="0" fill="#3f8624"/><path d="M715.4 474.83c-1.8 0-3.3-1.48-3.3-3.3 0-1.82 1.5-3.3 3.3-3.3 1.83 0 3.3 1.48 3.3 3.3 0 1.82-1.47 3.3-3.3 3.3zm0-3.56c-.15 0-.27.1-.26.26 0 .3.53.3.53 0v-.03c0-.15-.1-.26-.26-.26z" stroke="#fff" stroke-opacity="0" fill="#3f8624"/><use xlink:href="#E" transform="matrix(1,0,0,1,653.1914893617021,522.6170212765958) translate(40.425925925925924 17.77777777777778)"/><path d="M430.5 692.54h-1v-204h1zm239.48-214.17l-151.9.05v-1l151.9-.05z" stroke="#3a414a" stroke-width=".05" fill="#3a414a"/><path d="M430.5 693.06l-.5-.02-.5.02v-.53h1z" fill="#3a414a"/><path d="M430.52 693.1l-.52-.03-.52.02v-.6h1.04zm-1-.55v.48h.96v-.48z" stroke="#3a414a" stroke-width=".05" fill="#3a414a"/><path d="M684.75 477.87l-14.27 4.64v-9.26z" fill="#3a414a"/><path d="M686.37 477.87l-16.4 5.33v-10.65zm-15.4 3.95l12.16-3.95-12.15-3.94z" stroke="#3a414a" stroke-width=".05" fill="#3a414a"/><use xlink:href="#F" transform="matrix(1,0,0,1,383.11790051463043,467.20567375886526) translate(0 14.222222222222223)"/><use xlink:href="#G" transform="matrix(1,0,0,1,383.11790051463043,467.20567375886526) translate(50.17283950617284 14.222222222222223)"/><use xlink:href="#H" transform="matrix(1,0,0,1,383.11790051463043,467.20567375886526) translate(60.04938271604939 14.222222222222223)"/><use xlink:href="#I" transform="matrix(1,0,0,1,383.11790051463043,467.20567375886526) translate(108.39506172839506 14.222222222222223)"/><path d="M1160 477.87h107.23V585.1H1160V477.88z" stroke="#fff" stroke-opacity="0" stroke-width="2" fill="#d86613"/><path d="M1246.5 567.23h-17.62c-.57 0-1.03-.28-1.26-.78l-24.94-52.12h-10.52c-.8 0-1.43-.64-1.43-1.43v-15.73c0-.78.63-1.43 1.43-1.43h22.02c.57 0 1.03.3 1.26.8l24.83 52.1h6.23c.8 0 1.43.65 1.43 1.44v15.72c0 .8-.63 1.43-1.43 1.43zm-16.7-2.86h15.27V551.5h-5.72c-.57 0-1.03-.28-1.26-.78l-24.83-52.12h-19.68v12.87h10c.57 0 1.03.3 1.3.8z" stroke="#fff" stroke-opacity="0" stroke-width="2" fill="#fff"/><path d="M1199.28 567.23h-18.57c-.5 0-.94-.26-1.23-.65-.28-.48-.28-1-.06-1.44l19.47-40.62c.22-.52.73-.82 1.26-.82.57 0 1.05.3 1.3.78l9.3 19.16c.22.4.22.82 0 1.26l-10.15 21.42c-.2.57-.7.9-1.3.9zm-16.3-2.87h15.4l9.47-19.98-7.68-15.98z" stroke="#fff" stroke-opacity="0" stroke-width="2" fill="#fff"/><use xlink:href="#J" transform="matrix(1,0,0,1,1130,594.1063829787236) translate(38.35185185185185 17.77777777777778)"/><use xlink:href="#K" transform="matrix(1,0,0,1,1130,594.1063829787236) translate(98.78395061728395 17.77777777777778)"/><use xlink:href="#L" transform="matrix(1,0,0,1,1130,594.1063829787236) translate(10.018518518518519 44.44444444444444)"/><use xlink:href="#M" transform="matrix(1,0,0,1,1130,594.1063829787236) translate(118.59876543209877 44.44444444444444)"/><use xlink:href="#N" transform="matrix(1,0,0,1,1130,594.1063829787236) translate(19.24691358024691 71.11111111111111)"/><use xlink:href="#O" transform="matrix(1,0,0,1,1130,594.1063829787236) translate(43.938271604938265 71.11111111111111)"/><use xlink:href="#P" transform="matrix(1,0,0,1,1130,594.1063829787236) translate(77.27160493827161 71.11111111111111)"/><path d="M1267.73 531.5h279.3" stroke="#3a414a" fill="none"/><path d="M1267.75 532h-.52v-1h.52z" stroke="#3a414a" stroke-width=".05" fill="#3a414a"/><path d="M1561.8 531.5l-14.28 4.62v-9.27z" stroke="#3a414a" fill="#3a414a"/><path d="M1267.73 763.83H1522" stroke="#3a414a" fill="none"/><path d="M1267.75 764.33h-.52v-1h.52z" stroke="#3a414a" stroke-width=".05" fill="#3a414a"/><path d="M1536.76 763.83l-14.26 4.64v-9.28z" stroke="#3a414a" fill="#3a414a"/><path d="M430.5 962.07h-1v-53.8h1zm0-75.14h-1v-69.68h1z" stroke="#3a414a" stroke-width=".05" fill="#3a414a"/><path d="M430 816.75l.5-.02v.53h-1v-.53z" fill="#3a414a"/><path d="M430 816.72l.52-.02v.58h-1.04v-.58zm-.48.5h.96v-.47l-.48.02-.48-.02z" stroke="#3a414a" stroke-width=".05" fill="#3a414a"/><path d="M430 976.83l-4.64-14.26h9.28z" fill="#3a414a"/><path d="M430 978.45l-5.32-16.38h10.64zm-3.95-15.38L430 975.2l3.95-12.13z" stroke="#3a414a" stroke-width=".05" fill="#3a414a"/><use xlink:href="#Q" transform="matrix(1,0,0,1,416.69135802469134,886.9310587407743) translate(0 14.222222222222223)"/><path d="M711.6 302.94h-11.27c-.83 0-1.52-.68-1.52-1.52v-11.4c0-.85.7-1.53 1.53-1.53h11.28c.84 0 1.53.67 1.53 1.5v11.42c0 .84-.7 1.52-1.52 1.52zm-9.74-3.05h8.22v-8.36h-8.22zM726.56 297.3c-4.4 0-7.98-3.54-8-7.94-.02-4.4 3.54-8 7.94-8 4.4-.02 8 3.54 8 7.93v.03c.02 4.4-3.54 7.95-7.94 7.97zm0-12.9h-.03c-2.73 0-4.93 2.2-4.93 4.93 0 2.72 2.2 4.92 4.93 4.92 2.73 0 4.93-2.2 4.93-4.92 0-2.7-2.2-4.93-4.9-4.93zM710.16 282.97H695.9c-.56 0-1.04-.28-1.32-.78-.27-.48-.27-1.04 0-1.53l7.14-11.9c.44-.7 1.37-.93 2.1-.5.2.13.38.28.5.5l7.14 11.9c.27.5.27 1.05 0 1.52-.28.47-.75.75-1.3.77zm-11.57-3.05h8.88l-4.44-7.4z" stroke="#fff" stroke-opacity="0" fill="#3f8624"/><path d="M715.4 311.5c-9.68 0-25.1-2.2-25.3-8.14l-6.9-51.13c-.14-.85.38-1.65 1.22-1.83.84-.12 1.68.43 1.87 1.28.7 2.93 12.2 7.03 29.16 7.03 16.98 0 28.47-4.1 29.18-7.02.2-.85 1.03-1.4 1.87-1.28.85.18 1.37.98 1.24 1.83l-7.04 51.13c0 2.02-1.87 3.73-5.36 5.14-1.6.6-3.03 1.03-4.7 1.4-5.3 1.16-9.82 1.6-15.24 1.6zm-28.53-55.12l6.2 46.74v.18c0 1.84 8.7 5.2 22.26 5.2 5.17.06 9.5-.43 14.53-1.47 1.55-.37 2.84-.8 4.32-1.4 2.78-1.1 3.42-2.08 3.42-2.4v-.1l6.33-46.68c-5.88 3.48-17.75 5.37-28.6 5.37-10.84 0-22.6-1.95-28.46-5.44z" stroke="#fff" stroke-opacity="0" fill="#3f8624"/><path d="M715.4 261.74c-14.37 0-30.54-3.26-32.15-9.3V251.6v-.2c0-6.7 17-11.4 32.28-11.4 15.27 0 32.15 4.7 32.15 11.4v.2l-.07.64v.2c-1.6 6.04-17.77 9.3-32.2 9.3zm-29.2-10c.98 2.93 12.38 6.95 29.2 6.95 16.8 0 28.22-4.03 29.18-6.96v-.42c-.12-2.95-12.17-8.28-29.18-8.28-17 0-29 5.33-29.26 8.28zM747.74 282.77c-7.22 0-23.1-7.16-33-12.03l1.33-2.74c13.7 6.72 29.82 12.97 32.6 11.78-.23-.43-1.27-1.8-6.1-4.44l-.23-.15 1.5-2.65.23.14c4.9 2.67 7.22 4.74 7.62 6.7.14.84-.08 1.64-.63 2.3-.93.85-2.08 1.22-3.33 1.07z" stroke="#fff" stroke-opacity="0" fill="#3f8624"/><path d="M715.4 272.7c-1.8 0-3.3-1.48-3.3-3.3 0-1.82 1.5-3.3 3.3-3.3 1.83 0 3.3 1.48 3.3 3.3 0 1.82-1.47 3.3-3.3 3.3zm0-3.56c-.15 0-.27.12-.26.26 0 .3.53.3.53 0v-.03c0-.15-.1-.26-.26-.26z" stroke="#fff" stroke-opacity="0" fill="#3f8624"/><use xlink:href="#R" transform="matrix(1,0,0,1,653.1914893617021,320.48936170212767) translate(-1.425925925925938 17.77777777777778)"/><use xlink:href="#S" transform="matrix(1,0,0,1,653.1914893617021,320.48936170212767) translate(41.135802469135804 44.44444444444444)"/><path d="M984.25 305.8h-14.28c-.85 0-1.53-.7-1.53-1.53V272.9c0-.83.68-1.52 1.53-1.52h14.28c.85 0 1.53.7 1.53 1.5v31.4c0 .82-.68 1.5-1.53 1.5zm-12.76-3.04h11.22V274.4H971.5zM1007.1 305.8h-14.3c-.84 0-1.5-.7-1.5-1.54v-24.23c0-.85.66-1.53 1.5-1.53h14.3c.84 0 1.52.68 1.52 1.53v24.23c0 .84-.68 1.53-1.53 1.53zm-12.76-3.04h11.23v-21.23h-11.23zM964.26 308.45h71.4v3.04h-71.4v-3.05zM1029.94 305.8h-14.28c-.85 0-1.53-.7-1.53-1.52V268.6c0-.8.7-1.5 1.53-1.5.22 0 .4.03.62.1 4.32 1.94 8.72 1.94 13.04 0 .76-.3 1.66 0 2 .78.1.23.15.4.15.62v35.68c0 .8-.68 1.5-1.53 1.5zm-12.76-3.07h11.23V270.8c-3.82 1.17-7.4 1.17-11.22 0zM1022.8 265.86c-7.15 0-12.95-5.8-12.95-12.93 0-7.14 5.8-12.93 12.95-12.93 7.15 0 12.94 5.8 12.94 12.93 0 7.14-5.8 12.93-12.94 12.93zm0-22.8c-5.46 0-9.9 4.4-9.9 9.87 0 5.45 4.44 9.88 9.9 9.88s9.9-4.42 9.9-9.87c0-5.46-4.44-9.88-9.9-9.88z" stroke="#fff" stroke-opacity="0" fill="#cd2264"/><path d="M1024.32 255.85h-8.63v-3.05h5.57v-7h3.05v10.05z" stroke="#fff" stroke-opacity="0" fill="#cd2264"/><path d="M970.1 280.5h44.95v29.4H970.1v-29.4z" stroke="#fff" stroke-opacity="0" stroke-width=".21" fill="#fff" fill-opacity="0"/><path d="M1015.72 259.77h14.16v49.9h-14.16v-49.9z" stroke="#fff" stroke-opacity="0" stroke-width=".16" fill="#fff" fill-opacity="0"/><use xlink:href="#T" transform="matrix(1,0,0,1,934.2553191489361,320.48936170212767) translate(13.561728395061728 17.77777777777778)"/><use xlink:href="#U" transform="matrix(1,0,0,1,934.2553191489361,320.48936170212767) translate(4.3950617283950635 44.44444444444444)"/><use xlink:href="#V" transform="matrix(1,0,0,1,934.2553191489361,320.48936170212767) translate(98.03703703703704 44.44444444444444)"/><use xlink:href="#W" transform="matrix(1,0,0,1,934.2553191489361,320.48936170212767) translate(29.05555555555555 71.11111111111111)"/><path d="M86.83 673.37h-14.3c-.85 0-1.53-.7-1.53-1.5v-31.4c0-.82.68-1.5 1.53-1.5h14.3c.85 0 1.53.68 1.53 1.5v31.4c0 .8-.68 1.5-1.53 1.5zm-12.77-3.03H85.3V642H74.06zM109.7 673.37H95.4c-.85 0-1.52-.68-1.52-1.53V647.6c0-.84.67-1.52 1.52-1.52h14.3c.85 0 1.53.68 1.53 1.53v24.24c0 .85-.68 1.53-1.53 1.53zm-12.77-3.03h11.25V649.1H96.93zM66.8 676.03h71.5v3.04H66.8v-3.04zM133.3 630.6h-15.74c-2.02 0-3.66-1.66-3.66-3.68v-15.65c0-2.03 1.64-3.7 3.66-3.7h15.73c2.02 0 3.66 1.65 3.66 3.67v15.68c0 2.02-1.64 3.68-3.67 3.68zm-15.74-19.98c-.34.03-.62.3-.62.65v15.67c0 .34.28.62.62.62h15.73c.34-.02.6-.3.6-.64v-15.65c0-.35-.26-.62-.6-.65zM132.58 673.37h-14.3c-.85 0-1.53-.68-1.53-1.52v-37.07c0-.84.68-1.52 1.53-1.52h14.3c.85 0 1.52.68 1.52 1.52v37.07c0 .84-.67 1.52-1.52 1.52zm-12.78-3.05h11.25v-34H119.8z" stroke="#fff" stroke-opacity="0" fill="#cd2264"/><path d="M72.65 648.1h45.03v29.38H72.65v-29.4z" stroke="#fff" stroke-opacity="0" stroke-width=".21" fill="#fff" fill-opacity="0"/><path d="M118.35 627.35h14.18v49.9h-14.18v-49.9z" stroke="#fff" stroke-opacity="0" stroke-width=".16" fill="#fff" fill-opacity="0"/><use xlink:href="#X" transform="matrix(1,0,0,1,36.80851063829786,688.0743155149936) translate(15.907407407407412 17.77777777777778)"/><use xlink:href="#Y" transform="matrix(1,0,0,1,36.80851063829786,688.0743155149936) translate(91.40123456790124 17.77777777777778)"/><use xlink:href="#Z" transform="matrix(1,0,0,1,36.80851063829786,688.0743155149936) translate(32.69753086419753 44.44444444444444)"/><path d="M102.55 290.92V591.2" stroke="#3a414a" fill="none"/><path d="M103.05 290.94h-1v-.5l1-.02z" stroke="#3a414a" stroke-width=".05" fill="#3a414a"/><path d="M102.55 605.97l-4.63-14.27h9.27z" stroke="#3a414a" fill="#3a414a"/><path d="M102.55 679.57v224.05" stroke="#3a414a" fill="none"/><path d="M103.05 679.6h-1v-.53h1z" stroke="#3a414a" stroke-width=".05" fill="#3a414a"/><path d="M102.55 918.38l-4.63-14.26h9.27z" stroke="#3a414a" fill="#3a414a"/><path d="M984.25 554.3h-14.28c-.85 0-1.53-.7-1.53-1.52V521.4c0-.82.68-1.5 1.53-1.5h14.28c.85 0 1.53.68 1.53 1.5v31.38c0 .83-.68 1.52-1.53 1.52zm-12.76-3.03h11.22v-28.35H971.5zM1007.1 554.3h-14.3c-.84 0-1.5-.7-1.5-1.53v-24.23c0-.85.66-1.53 1.5-1.53h14.3c.84 0 1.52.7 1.52 1.54v24.23c0 .84-.68 1.53-1.53 1.53zm-12.76-3.03h11.23v-21.23h-11.23zM964.26 556.96h71.4V560h-71.4v-3.04zM1029.94 554.3h-14.28c-.85 0-1.53-.7-1.53-1.5v-35.7c0-.8.7-1.5 1.53-1.5.22 0 .4.04.62.12 4.32 1.93 8.72 1.93 13.04 0 .76-.3 1.66 0 2 .77.1.23.15.38.15.6v35.7c0 .8-.68 1.5-1.53 1.5zm-12.76-3.06h11.23v-31.92c-3.82 1.16-7.4 1.16-11.22 0zM1022.8 514.37c-7.15 0-12.95-5.8-12.95-12.93 0-7.14 5.8-12.93 12.95-12.93 7.15 0 12.94 5.8 12.94 12.94s-5.8 12.93-12.94 12.93zm0-22.8c-5.46 0-9.9 4.4-9.9 9.87 0 5.46 4.44 9.88 9.9 9.88s9.9-4.42 9.9-9.88c0-5.46-4.44-9.88-9.9-9.88z" stroke="#fff" stroke-opacity="0" fill="#cd2264"/><path d="M1024.32 504.36h-8.63v-3.05h5.57v-7h3.05v10.06z" stroke="#fff" stroke-opacity="0" fill="#cd2264"/><path d="M970.1 529h44.95v29.4H970.1V529z" stroke="#fff" stroke-opacity="0" stroke-width=".21" fill="#fff" fill-opacity="0"/><path d="M1015.72 508.28h14.16v49.9h-14.16v-49.9z" stroke="#fff" stroke-opacity="0" stroke-width=".16" fill="#fff" fill-opacity="0"/><g><use xlink:href="#T" transform="matrix(1,0,0,1,934.2553191489362,569) translate(13.561728395061728 17.77777777777778)"/><use xlink:href="#aa" transform="matrix(1,0,0,1,934.2553191489362,569) translate(22.26543209876543 44.44444444444444)"/><use xlink:href="#ab" transform="matrix(1,0,0,1,934.2553191489362,569) translate(5.567901234567898 71.11111111111111)"/><use xlink:href="#P" transform="matrix(1,0,0,1,934.2553191489362,569) translate(54.95061728395061 71.11111111111111)"/></g><path d="M984.25 793.87h-14.28c-.85 0-1.53-.7-1.53-1.5v-31.4c0-.82.68-1.5 1.53-1.5h14.28c.85 0 1.53.68 1.53 1.5v31.4c0 .8-.68 1.5-1.53 1.5zm-12.76-3.03h11.22V762.5H971.5zM1007.1 793.87h-14.3c-.84 0-1.5-.68-1.5-1.53V768.1c0-.83.66-1.52 1.5-1.52h14.3c.84 0 1.52.7 1.52 1.53v24.24c0 .85-.68 1.53-1.53 1.53zm-12.76-3.03h11.23V769.6h-11.23zM964.26 796.53h71.4v3.04h-71.4v-3.04zM1029.94 793.87h-14.28c-.85 0-1.53-.7-1.53-1.5v-35.68c0-.83.7-1.52 1.53-1.52.22 0 .4.04.62.1 4.32 1.95 8.72 1.95 13.04 0 .76-.3 1.66 0 2 .8.1.22.15.37.15.6v35.68c0 .8-.68 1.5-1.53 1.5zm-12.76-3.06h11.23v-31.9c-3.82 1.15-7.4 1.15-11.22 0zM1022.8 753.94c-7.15 0-12.95-5.8-12.95-12.93 0-7.12 5.8-12.9 12.95-12.9 7.15 0 12.94 5.78 12.94 12.9 0 7.15-5.8 12.94-12.94 12.94zm0-22.8c-5.46 0-9.9 4.42-9.9 9.87 0 5.47 4.44 9.9 9.9 9.9s9.9-4.43 9.9-9.9c0-5.44-4.44-9.86-9.9-9.86z" stroke="#fff" stroke-opacity="0" fill="#cd2264"/><path d="M1024.32 743.93h-8.63v-3.04h5.57v-7.02h3.05v10.05z" stroke="#fff" stroke-opacity="0" fill="#cd2264"/><path d="M970.1 768.6h44.95v29.38H970.1v-29.4z" stroke="#fff" stroke-opacity="0" stroke-width=".21" fill="#fff" fill-opacity="0"/><path d="M1015.72 747.85h14.16v49.9h-14.16v-49.9z" stroke="#fff" stroke-opacity="0" stroke-width=".16" fill="#fff" fill-opacity="0"/><g><use xlink:href="#ac" transform="matrix(1,0,0,1,934.2553191489362,808.5744680851062) translate(19.73456790123457 17.77777777777778)"/><use xlink:href="#aa" transform="matrix(1,0,0,1,934.2553191489362,808.5744680851062) translate(22.26543209876543 44.44444444444444)"/><use xlink:href="#ad" transform="matrix(1,0,0,1,934.2553191489362,808.5744680851062) translate(29.641975308641975 71.11111111111111)"/><use xlink:href="#ae" transform="matrix(1,0,0,1,934.2553191489362,808.5744680851062) translate(35.19753086419753 97.77777777777777)"/></g><path d="M1031.97 524.26h111.65" stroke="#3a414a" fill="none"/><path d="M1031.98 524.76h-.5v-1h.5z" stroke="#3a414a" stroke-width=".05" fill="#3a414a"/><path d="M1158.38 524.26l-14.26 4.63v-9.28z" stroke="#3a414a" fill="#3a414a"/><path d="M714.27 727.74v-14.5a6 6 0 0 1 6-6H854a6 6 0 0 0 6-6V530.26a6 6 0 0 1 6-6h86.06" stroke="#3a414a" fill="none"/><path d="M714.77 728.28l-1-.08v-.48h1z" stroke="#3a414a" stroke-width=".05" fill="#3a414a"/><path d="M966.83 524.26l-14.27 4.63v-9.28z" stroke="#3a414a" fill="#3a414a"/><path d="M746.1 763.83h205.96" stroke="#3a414a" fill="none"/><path d="M746.1 764.22l-1.16-.9h1.17z" stroke="#3a414a" stroke-width=".05" fill="#3a414a"/><path d="M966.83 763.83l-14.27 4.64v-9.28z" stroke="#3a414a" fill="#3a414a"/><path d="M1031.97 763.83h111.65" stroke="#3a414a" fill="none"/><path d="M1031.98 764.33h-.5v-1h.5z" stroke="#3a414a" stroke-width=".05" fill="#3a414a"/><path d="M1158.38 763.83l-14.26 4.64v-9.28z" stroke="#3a414a" fill="#3a414a"/><path d="M749.28 275.74h202.78" stroke="#3a414a" fill="none"/><path d="M749.3 276.14l-1.17-.9h1.17z" stroke="#3a414a" stroke-width=".05" fill="#3a414a"/><path d="M966.83 275.74l-14.27 4.64v-9.27z" stroke="#3a414a" fill="#3a414a"/><path d="M749.28 477.87H994a6 6 0 0 0 6-6v-144" stroke="#3a414a" fill="none"/><path d="M749.3 478.27l-1.17-.9h1.17z" stroke="#3a414a" stroke-width=".05" fill="#3a414a"/><path d="M1000 313.1l4.64 14.27h-9.28z" stroke="#3a414a" fill="#3a414a"/><path d="M1031.97 275.74h500.74" stroke="#3a414a" fill="none"/><path d="M1031.98 276.24h-.5v-1h.5z" stroke="#3a414a" stroke-width=".05" fill="#3a414a"/><path d="M1547.5 275.74l-14.28 4.64v-9.27z" stroke="#3a414a" fill="#3a414a"/><defs><path fill="#3a414a" d="M205 0l-28-72H64L36 0H1l101-248h38L239 0h-34zm-38-99l-47-123c-12 45-31 82-46 123h93" id="af"/><path fill="#3a414a" d="M210-169c-67 3-38 105-44 169h-31v-121c0-29-5-50-35-48C34-165 62-65 56 0H25l-1-190h30c1 10-1 24 2 32 10-44 99-50 107 0 11-21 27-35 58-36 85-2 47 119 55 194h-31v-121c0-29-5-49-35-48" id="ag"/><path fill="#3a414a" d="M141-36C126-15 110 5 73 4 37 3 15-17 15-53c-1-64 63-63 125-63 3-35-9-54-41-54-24 1-41 7-42 31l-33-3c5-37 33-52 76-52 45 0 72 20 72 64v82c-1 20 7 32 28 27v20c-31 9-61-2-59-35zM48-53c0 20 12 33 32 33 41-3 63-29 60-74-43 2-92-5-92 41" id="ah"/><path fill="#3a414a" d="M9 0v-24l116-142H16v-24h144v24L44-24h123V0H9" id="ai"/><path fill="#3a414a" d="M100-194c62-1 85 37 85 99 1 63-27 99-86 99S16-35 15-95c0-66 28-99 85-99zM99-20c44 1 53-31 53-75 0-43-8-75-51-75s-53 32-53 75 10 74 51 75" id="aj"/><path fill="#3a414a" d="M117-194c89-4 53 116 60 194h-32v-121c0-31-8-49-39-48C34-167 62-67 57 0H25l-1-190h30c1 10-1 24 2 32 11-22 29-35 61-36" id="ak"/><g id="a"><use transform="matrix(0.06172839506172839,0,0,0.06172839506172839,0,0)" xlink:href="#af"/><use transform="matrix(0.06172839506172839,0,0,0.06172839506172839,14.814814814814813,0)" xlink:href="#ag"/><use transform="matrix(0.06172839506172839,0,0,0.06172839506172839,33.2716049382716,0)" xlink:href="#ah"/><use transform="matrix(0.06172839506172839,0,0,0.06172839506172839,45.61728395061728,0)" xlink:href="#ai"/><use transform="matrix(0.06172839506172839,0,0,0.06172839506172839,56.72839506172839,0)" xlink:href="#aj"/><use transform="matrix(0.06172839506172839,0,0,0.06172839506172839,69.07407407407408,0)" xlink:href="#ak"/></g><path fill="#3a414a" d="M59-47c-2 24 18 29 38 22v24C64 9 27 4 27-40v-127H5v-23h24l9-43h21v43h35v23H59v120" id="al"/><path fill="#3a414a" d="M106-169C34-169 62-67 57 0H25v-261h32l-1 103c12-21 28-36 61-36 89 0 53 116 60 194h-32v-121c2-32-8-49-39-48" id="am"/><path fill="#3a414a" d="M100-194c63 0 86 42 84 106H49c0 40 14 67 53 68 26 1 43-12 49-29l28 8c-11 28-37 45-77 45C44 4 14-33 15-96c1-61 26-98 85-98zm52 81c6-60-76-77-97-28-3 7-6 17-6 28h103" id="an"/><g id="b"><use transform="matrix(0.06172839506172839,0,0,0.06172839506172839,0,0)" xlink:href="#af"/><use transform="matrix(0.06172839506172839,0,0,0.06172839506172839,14.814814814814813,0)" xlink:href="#al"/><use transform="matrix(0.06172839506172839,0,0,0.06172839506172839,20.98765432098765,0)" xlink:href="#am"/><use transform="matrix(0.06172839506172839,0,0,0.06172839506172839,33.33333333333333,0)" xlink:href="#an"/><use transform="matrix(0.06172839506172839,0,0,0.06172839506172839,45.679012345679006,0)" xlink:href="#ak"/><use transform="matrix(0.06172839506172839,0,0,0.06172839506172839,58.02469135802468,0)" xlink:href="#ah"/></g><path fill="#3a414a" d="M114-163C36-179 61-72 57 0H25l-1-190h30c1 12-1 29 2 39 6-27 23-49 58-41v29" id="ao"/><path fill="#3a414a" d="M96-169c-40 0-48 33-48 73s9 75 48 75c24 0 41-14 43-38l32 2c-6 37-31 61-74 61-59 0-76-41-82-99-10-93 101-131 147-64 4 7 5 14 7 22l-32 3c-4-21-16-35-41-35" id="ap"/><path fill="#3a414a" d="M24-231v-30h32v30H24zM24 0v-190h32V0H24" id="aq"/><path fill="#3a414a" d="M108 0H70L1-190h34L89-25l56-165h34" id="ar"/><g id="c"><use transform="matrix(0.06172839506172839,0,0,0.06172839506172839,0,0)" xlink:href="#af"/><use transform="matrix(0.06172839506172839,0,0,0.06172839506172839,14.814814814814813,0)" xlink:href="#ao"/><use transform="matrix(0.06172839506172839,0,0,0.06172839506172839,22.160493827160494,0)" xlink:href="#ap"/><use transform="matrix(0.06172839506172839,0,0,0.06172839506172839,33.27160493827161,0)" xlink:href="#am"/><use transform="matrix(0.06172839506172839,0,0,0.06172839506172839,45.617283950617285,0)" xlink:href="#aq"/><use transform="matrix(0.06172839506172839,0,0,0.06172839506172839,50.49382716049383,0)" xlink:href="#ar"/><use transform="matrix(0.06172839506172839,0,0,0.06172839506172839,61.60493827160494,0)" xlink:href="#an"/></g><path fill="#3a414a" d="M33 0v-248h34V0H33" id="as"/><path fill="#3a414a" d="M177-190C167-65 218 103 67 71c-23-6-38-20-44-43l32-5c15 47 100 32 89-28v-30C133-14 115 1 83 1 29 1 15-40 15-95c0-56 16-97 71-98 29-1 48 16 59 35 1-10 0-23 2-32h30zM94-22c36 0 50-32 50-73 0-42-14-75-50-75-39 0-46 34-46 75s6 73 46 73" id="at"/><g id="d"><use transform="matrix(0.06172839506172839,0,0,0.06172839506172839,0,0)" xlink:href="#as"/><use transform="matrix(0.06172839506172839,0,0,0.06172839506172839,6.172839506172839,0)" xlink:href="#ak"/><use transform="matrix(0.06172839506172839,0,0,0.06172839506172839,18.51851851851852,0)" xlink:href="#ap"/><use transform="matrix(0.06172839506172839,0,0,0.06172839506172839,29.62962962962963,0)" xlink:href="#aj"/><use transform="matrix(0.06172839506172839,0,0,0.06172839506172839,41.97530864197531,0)" xlink:href="#ag"/><use transform="matrix(0.06172839506172839,0,0,0.06172839506172839,60.4320987654321,0)" xlink:href="#aq"/><use transform="matrix(0.06172839506172839,0,0,0.06172839506172839,65.30864197530865,0)" xlink:href="#ak"/><use transform="matrix(0.06172839506172839,0,0,0.06172839506172839,77.65432098765433,0)" xlink:href="#at"/></g><path fill="#3a414a" d="M153-248C145-148 188 4 80 4 36 3 13-21 6-62l32-5c4 25 16 42 43 43 27 0 39-20 39-49v-147H72v-28h81" id="au"/><path fill="#3a414a" d="M135-143c-3-34-86-38-87 0 15 53 115 12 119 90S17 21 10-45l28-5c4 36 97 45 98 0-10-56-113-15-118-90-4-57 82-63 122-42 12 7 21 19 24 35" id="av"/><g id="e"><use transform="matrix(0.06172839506172839,0,0,0.06172839506172839,0,0)" xlink:href="#au"/><use transform="matrix(0.06172839506172839,0,0,0.06172839506172839,11.11111111111111,0)" xlink:href="#av"/><use transform="matrix(0.06172839506172839,0,0,0.06172839506172839,22.22222222222222,0)" xlink:href="#aj"/><use transform="matrix(0.06172839506172839,0,0,0.06172839506172839,34.5679012345679,0)" xlink:href="#ak"/></g><path fill="#3a414a" d="M143 0L79-87 56-68V0H24v-261h32v163l83-92h37l-77 82L181 0h-38" id="aw"/><path fill="#3a414a" d="M101-234c-31-9-42 10-38 44h38v23H63V0H32v-167H5v-23h27c-7-52 17-82 69-68v24" id="ax"/><g id="f"><use transform="matrix(0.06172839506172839,0,0,0.06172839506172839,0,0)" xlink:href="#aw"/><use transform="matrix(0.06172839506172839,0,0,0.06172839506172839,11.11111111111111,0)" xlink:href="#ah"/><use transform="matrix(0.06172839506172839,0,0,0.06172839506172839,23.45679012345679,0)" xlink:href="#ax"/><use transform="matrix(0.06172839506172839,0,0,0.06172839506172839,29.62962962962963,0)" xlink:href="#aw"/><use transform="matrix(0.06172839506172839,0,0,0.06172839506172839,40.74074074074074,0)" xlink:href="#ah"/></g><path fill="#3a414a" d="M85-194c31 0 48 13 60 33l-1-100h32l1 261h-30c-2-10 0-23-3-31C134-8 116 4 85 4 32 4 16-35 15-94c0-66 23-100 70-100zm9 24c-40 0-46 34-46 75 0 40 6 74 45 74 42 0 51-32 51-76 0-42-9-74-50-73" id="ay"/><g id="g"><use transform="matrix(0.06172839506172839,0,0,0.06172839506172839,0,0)" xlink:href="#ay"/><use transform="matrix(0.06172839506172839,0,0,0.06172839506172839,12.345679012345679,0)" xlink:href="#ah"/><use transform="matrix(0.06172839506172839,0,0,0.06172839506172839,24.691358024691358,0)" xlink:href="#al"/><use transform="matrix(0.06172839506172839,0,0,0.06172839506172839,30.864197530864196,0)" xlink:href="#ah"/></g><path fill="#3a414a" d="M63-220v92h138v28H63V0H30v-248h175v28H63" id="az"/><path fill="#3a414a" d="M24 0v-261h32V0H24" id="aA"/><g id="h"><use transform="matrix(0.06172839506172839,0,0,0.06172839506172839,0,0)" xlink:href="#az"/><use transform="matrix(0.06172839506172839,0,0,0.06172839506172839,13.518518518518517,0)" xlink:href="#aA"/><use transform="matrix(0.06172839506172839,0,0,0.06172839506172839,18.39506172839506,0)" xlink:href="#ah"/><use transform="matrix(0.06172839506172839,0,0,0.06172839506172839,30.74074074074074,0)" xlink:href="#al"/><use transform="matrix(0.06172839506172839,0,0,0.06172839506172839,36.91358024691358,0)" xlink:href="#al"/><use transform="matrix(0.06172839506172839,0,0,0.06172839506172839,43.086419753086425,0)" xlink:href="#an"/><use transform="matrix(0.06172839506172839,0,0,0.06172839506172839,55.4320987654321,0)" xlink:href="#ak"/></g><g id="i"><use transform="matrix(0.06172839506172839,0,0,0.06172839506172839,0,0)" xlink:href="#ah"/><use transform="matrix(0.06172839506172839,0,0,0.06172839506172839,12.345679012345679,0)" xlink:href="#ak"/><use transform="matrix(0.06172839506172839,0,0,0.06172839506172839,24.691358024691358,0)" xlink:href="#ay"/></g><g id="j"><use transform="matrix(0.06172839506172839,0,0,0.06172839506172839,0,0)" xlink:href="#as"/><use transform="matrix(0.06172839506172839,0,0,0.06172839506172839,6.172839506172839,0)" xlink:href="#ak"/><use transform="matrix(0.06172839506172839,0,0,0.06172839506172839,18.51851851851852,0)" xlink:href="#av"/><use transform="matrix(0.06172839506172839,0,0,0.06172839506172839,29.62962962962963,0)" xlink:href="#an"/><use transform="matrix(0.06172839506172839,0,0,0.06172839506172839,41.97530864197531,0)" xlink:href="#ao"/><use transform="matrix(0.06172839506172839,0,0,0.06172839506172839,49.32098765432099,0)" xlink:href="#al"/></g><g id="k"><use transform="matrix(0.06172839506172839,0,0,0.06172839506172839,0,0)" xlink:href="#al"/><use transform="matrix(0.06172839506172839,0,0,0.06172839506172839,6.172839506172839,0)" xlink:href="#am"/><use transform="matrix(0.06172839506172839,0,0,0.06172839506172839,18.51851851851852,0)" xlink:href="#an"/></g><g id="l"><use transform="matrix(0.06172839506172839,0,0,0.06172839506172839,0,0)" xlink:href="#ay"/><use transform="matrix(0.06172839506172839,0,0,0.06172839506172839,12.345679012345679,0)" xlink:href="#ah"/><use transform="matrix(0.06172839506172839,0,0,0.06172839506172839,24.691358024691358,0)" xlink:href="#al"/><use transform="matrix(0.06172839506172839,0,0,0.06172839506172839,30.864197530864196,0)" xlink:href="#ah"/></g><g id="m"><use transform="matrix(0.06172839506172839,0,0,0.06172839506172839,0,0)" xlink:href="#aq"/><use transform="matrix(0.06172839506172839,0,0,0.06172839506172839,4.876543209876543,0)" xlink:href="#ak"/><use transform="matrix(0.06172839506172839,0,0,0.06172839506172839,17.22222222222222,0)" xlink:href="#al"/><use transform="matrix(0.06172839506172839,0,0,0.06172839506172839,23.39506172839506,0)" xlink:href="#aj"/></g><path fill="#3a414a" d="M233-177c-1 41-23 64-60 70L243 0h-38l-65-103H63V0H30v-248c88 3 205-21 203 71zM63-129c60-2 137 13 137-47 0-61-80-42-137-45v92" id="aB"/><g id="n"><use transform="matrix(0.06172839506172839,0,0,0.06172839506172839,0,0)" xlink:href="#aB"/><use transform="matrix(0.06172839506172839,0,0,0.06172839506172839,15.987654320987653,0)" xlink:href="#an"/><use transform="matrix(0.06172839506172839,0,0,0.06172839506172839,28.333333333333332,0)" xlink:href="#ay"/><use transform="matrix(0.06172839506172839,0,0,0.06172839506172839,40.67901234567901,0)" xlink:href="#av"/><use transform="matrix(0.06172839506172839,0,0,0.06172839506172839,51.79012345679013,0)" xlink:href="#am"/><use transform="matrix(0.06172839506172839,0,0,0.06172839506172839,64.13580246913581,0)" xlink:href="#aq"/><use transform="matrix(0.06172839506172839,0,0,0.06172839506172839,69.01234567901236,0)" xlink:href="#ax"/><use transform="matrix(0.06172839506172839,0,0,0.06172839506172839,75.18518518518519,0)" xlink:href="#al"/></g><g id="o"><use transform="matrix(0.06172839506172839,0,0,0.06172839506172839,0,0)" xlink:href="#au"/><use transform="matrix(0.06172839506172839,0,0,0.06172839506172839,11.11111111111111,0)" xlink:href="#av"/><use transform="matrix(0.06172839506172839,0,0,0.06172839506172839,22.22222222222222,0)" xlink:href="#aj"/><use transform="matrix(0.06172839506172839,0,0,0.06172839506172839,34.5679012345679,0)" xlink:href="#ak"/></g><g id="p"><use transform="matrix(0.06172839506172839,0,0,0.06172839506172839,0,0)" xlink:href="#av"/><use transform="matrix(0.06172839506172839,0,0,0.06172839506172839,11.11111111111111,0)" xlink:href="#ap"/><use transform="matrix(0.06172839506172839,0,0,0.06172839506172839,22.22222222222222,0)" xlink:href="#am"/><use transform="matrix(0.06172839506172839,0,0,0.06172839506172839,34.5679012345679,0)" xlink:href="#an"/><use transform="matrix(0.06172839506172839,0,0,0.06172839506172839,46.913580246913575,0)" xlink:href="#ag"/><use transform="matrix(0.06172839506172839,0,0,0.06172839506172839,65.37037037037037,0)" xlink:href="#ah"/></g><g id="q"><use transform="matrix(0.06172839506172839,0,0,0.06172839506172839,0,0)" xlink:href="#ar"/><use transform="matrix(0.06172839506172839,0,0,0.06172839506172839,11.11111111111111,0)" xlink:href="#ah"/><use transform="matrix(0.06172839506172839,0,0,0.06172839506172839,23.45679012345679,0)" xlink:href="#aA"/><use transform="matrix(0.06172839506172839,0,0,0.06172839506172839,28.333333333333336,0)" xlink:href="#aq"/><use transform="matrix(0.06172839506172839,0,0,0.06172839506172839,33.20987654320988,0)" xlink:href="#ay"/><use transform="matrix(0.06172839506172839,0,0,0.06172839506172839,45.55555555555556,0)" xlink:href="#ah"/><use transform="matrix(0.06172839506172839,0,0,0.06172839506172839,57.901234567901234,0)" xlink:href="#al"/><use transform="matrix(0.06172839506172839,0,0,0.06172839506172839,64.07407407407408,0)" xlink:href="#aj"/><use transform="matrix(0.06172839506172839,0,0,0.06172839506172839,76.41975308641976,0)" xlink:href="#ao"/></g><g id="r"><use transform="matrix(0.06172839506172839,0,0,0.06172839506172839,0,0)" xlink:href="#aB"/><use transform="matrix(0.06172839506172839,0,0,0.06172839506172839,15.987654320987653,0)" xlink:href="#an"/><use transform="matrix(0.06172839506172839,0,0,0.06172839506172839,28.333333333333332,0)" xlink:href="#ay"/><use transform="matrix(0.06172839506172839,0,0,0.06172839506172839,40.67901234567901,0)" xlink:href="#av"/><use transform="matrix(0.06172839506172839,0,0,0.06172839506172839,51.79012345679013,0)" xlink:href="#am"/><use transform="matrix(0.06172839506172839,0,0,0.06172839506172839,64.13580246913581,0)" xlink:href="#aq"/><use transform="matrix(0.06172839506172839,0,0,0.06172839506172839,69.01234567901236,0)" xlink:href="#ax"/><use transform="matrix(0.06172839506172839,0,0,0.06172839506172839,75.18518518518519,0)" xlink:href="#al"/></g><path fill="#3a414a" d="M30 0v-248h187v28H63v79h144v27H63v87h162V0H30" id="aC"/><g id="s"><use transform="matrix(0.06172839506172839,0,0,0.06172839506172839,0,0)" xlink:href="#aC"/><use transform="matrix(0.06172839506172839,0,0,0.06172839506172839,14.814814814814813,0)" xlink:href="#ag"/><use transform="matrix(0.06172839506172839,0,0,0.06172839506172839,33.2716049382716,0)" xlink:href="#ah"/><use transform="matrix(0.06172839506172839,0,0,0.06172839506172839,45.61728395061728,0)" xlink:href="#aq"/><use transform="matrix(0.06172839506172839,0,0,0.06172839506172839,50.49382716049382,0)" xlink:href="#aA"/></g><g id="t"><use transform="matrix(0.06172839506172839,0,0,0.06172839506172839,0,0)" xlink:href="#ap"/><use transform="matrix(0.06172839506172839,0,0,0.06172839506172839,11.11111111111111,0)" xlink:href="#am"/><use transform="matrix(0.06172839506172839,0,0,0.06172839506172839,23.45679012345679,0)" xlink:href="#an"/><use transform="matrix(0.06172839506172839,0,0,0.06172839506172839,35.80246913580247,0)" xlink:href="#ap"/><use transform="matrix(0.06172839506172839,0,0,0.06172839506172839,46.91358024691358,0)" xlink:href="#aw"/></g><g id="u"><use transform="matrix(0.06172839506172839,0,0,0.06172839506172839,0,0)" xlink:href="#aq"/><use transform="matrix(0.06172839506172839,0,0,0.06172839506172839,4.876543209876543,0)" xlink:href="#ax"/></g><g id="v"><use transform="matrix(0.06172839506172839,0,0,0.06172839506172839,0,0)" xlink:href="#au"/><use transform="matrix(0.06172839506172839,0,0,0.06172839506172839,11.11111111111111,0)" xlink:href="#av"/><use transform="matrix(0.06172839506172839,0,0,0.06172839506172839,22.22222222222222,0)" xlink:href="#aj"/><use transform="matrix(0.06172839506172839,0,0,0.06172839506172839,34.5679012345679,0)" xlink:href="#ak"/></g><g id="w"><use transform="matrix(0.06172839506172839,0,0,0.06172839506172839,0,0)" xlink:href="#av"/><use transform="matrix(0.06172839506172839,0,0,0.06172839506172839,11.11111111111111,0)" xlink:href="#ap"/><use transform="matrix(0.06172839506172839,0,0,0.06172839506172839,22.22222222222222,0)" xlink:href="#am"/><use transform="matrix(0.06172839506172839,0,0,0.06172839506172839,34.5679012345679,0)" xlink:href="#an"/><use transform="matrix(0.06172839506172839,0,0,0.06172839506172839,46.913580246913575,0)" xlink:href="#ag"/><use transform="matrix(0.06172839506172839,0,0,0.06172839506172839,65.37037037037037,0)" xlink:href="#ah"/></g><g id="x"><use transform="matrix(0.06172839506172839,0,0,0.06172839506172839,0,0)" xlink:href="#aq"/><use transform="matrix(0.06172839506172839,0,0,0.06172839506172839,4.876543209876543,0)" xlink:href="#av"/></g><g id="y"><use transform="matrix(0.06172839506172839,0,0,0.06172839506172839,0,0)" xlink:href="#ar"/><use transform="matrix(0.06172839506172839,0,0,0.06172839506172839,11.11111111111111,0)" xlink:href="#ah"/><use transform="matrix(0.06172839506172839,0,0,0.06172839506172839,23.45679012345679,0)" xlink:href="#aA"/><use transform="matrix(0.06172839506172839,0,0,0.06172839506172839,28.333333333333336,0)" xlink:href="#aq"/><use transform="matrix(0.06172839506172839,0,0,0.06172839506172839,33.20987654320988,0)" xlink:href="#ay"/></g><path fill="#333" d="M146-102V0H94v-102L6-248h54l60 105 60-105h54" id="aD"/><path fill="#333" d="M185-48c-13 30-37 53-82 52C43 2 14-33 14-96s30-98 90-98c62 0 83 45 84 108H66c0 31 8 55 39 56 18 0 30-7 34-22zm-45-69c5-46-57-63-70-21-2 6-4 13-4 21h74" id="aE"/><path fill="#333" d="M137-138c1-29-70-34-71-4 15 46 118 7 119 86 1 83-164 76-172 9l43-7c4 19 20 25 44 25 33 8 57-30 24-41C81-84 22-81 20-136c-2-80 154-74 161-7" id="aF"/><g id="z"><use transform="matrix(0.04938271604938272,0,0,0.04938271604938272,0,0)" xlink:href="#aD"/><use transform="matrix(0.04938271604938272,0,0,0.04938271604938272,10.864197530864198,0)" xlink:href="#aE"/><use transform="matrix(0.04938271604938272,0,0,0.04938271604938272,20.74074074074074,0)" xlink:href="#aF"/></g><path fill="#3a414a" d="M137 0h-34L2-248h35l83 218 83-218h36" id="aG"/><g id="A"><use transform="matrix(0.06172839506172839,0,0,0.06172839506172839,0,0)" xlink:href="#aG"/><use transform="matrix(0.06172839506172839,0,0,0.06172839506172839,13.148148148148147,0)" xlink:href="#ah"/><use transform="matrix(0.06172839506172839,0,0,0.06172839506172839,25.493827160493826,0)" xlink:href="#aA"/><use transform="matrix(0.06172839506172839,0,0,0.06172839506172839,30.370370370370367,0)" xlink:href="#aq"/><use transform="matrix(0.06172839506172839,0,0,0.06172839506172839,35.24691358024691,0)" xlink:href="#ay"/></g><g id="B"><use transform="matrix(0.06172839506172839,0,0,0.06172839506172839,0,0)" xlink:href="#ax"/><use transform="matrix(0.06172839506172839,0,0,0.06172839506172839,6.172839506172839,0)" xlink:href="#aq"/><use transform="matrix(0.06172839506172839,0,0,0.06172839506172839,11.049382716049383,0)" xlink:href="#aA"/><use transform="matrix(0.06172839506172839,0,0,0.06172839506172839,15.925925925925926,0)" xlink:href="#an"/><use transform="matrix(0.06172839506172839,0,0,0.06172839506172839,28.271604938271604,0)" xlink:href="#av"/></g><path fill="#3a414a" d="M185-189c-5-48-123-54-124 2 14 75 158 14 163 119 3 78-121 87-175 55-17-10-28-26-33-46l33-7c5 56 141 63 141-1 0-78-155-14-162-118-5-82 145-84 179-34 5 7 8 16 11 25" id="aH"/><g id="C"><use transform="matrix(0.06172839506172839,0,0,0.06172839506172839,0,0)" xlink:href="#aH"/><use transform="matrix(0.06172839506172839,0,0,0.06172839506172839,14.814814814814813,0)" xlink:href="#ap"/><use transform="matrix(0.06172839506172839,0,0,0.06172839506172839,25.925925925925924,0)" xlink:href="#am"/><use transform="matrix(0.06172839506172839,0,0,0.06172839506172839,38.2716049382716,0)" xlink:href="#an"/><use transform="matrix(0.06172839506172839,0,0,0.06172839506172839,50.61728395061728,0)" xlink:href="#ag"/><use transform="matrix(0.06172839506172839,0,0,0.06172839506172839,69.07407407407406,0)" xlink:href="#ah"/></g><g id="D"><use transform="matrix(0.06172839506172839,0,0,0.06172839506172839,0,0)" xlink:href="#an"/><use transform="matrix(0.06172839506172839,0,0,0.06172839506172839,12.345679012345679,0)" xlink:href="#ao"/><use transform="matrix(0.06172839506172839,0,0,0.06172839506172839,19.691358024691358,0)" xlink:href="#ao"/><use transform="matrix(0.06172839506172839,0,0,0.06172839506172839,27.037037037037038,0)" xlink:href="#aj"/><use transform="matrix(0.06172839506172839,0,0,0.06172839506172839,39.382716049382715,0)" xlink:href="#ao"/></g><path fill="#3a414a" d="M30 0v-248h33v221h125V0H30" id="aI"/><g id="E"><use transform="matrix(0.06172839506172839,0,0,0.06172839506172839,0,0)" xlink:href="#aI"/><use transform="matrix(0.06172839506172839,0,0,0.06172839506172839,12.345679012345679,0)" xlink:href="#aj"/><use transform="matrix(0.06172839506172839,0,0,0.06172839506172839,24.691358024691358,0)" xlink:href="#at"/><use transform="matrix(0.06172839506172839,0,0,0.06172839506172839,37.03703703703704,0)" xlink:href="#av"/></g><path fill="#e81313" d="M199 0l-22-63H83L61 0H9l90-248h61L250 0h-51zm-33-102l-36-108c-10 38-24 72-36 108h72" id="aJ"/><path fill="#e81313" d="M85 4C-2 5 27-109 22-190h50c7 57-23 150 33 157 60-5 35-97 40-157h50l1 190h-47c-2-12 1-28-3-38-12 25-28 42-61 42" id="aK"/><path fill="#e81313" d="M88-194c31-1 46 15 58 34l-1-101h50l1 261h-48c-2-10 0-23-3-31C134-8 116 4 84 4 32 4 16-41 15-95c0-56 19-97 73-99zm17 164c33 0 40-30 41-66 1-37-9-64-41-64s-38 30-39 65c0 43 13 65 39 65" id="aL"/><path fill="#e81313" d="M25-224v-37h50v37H25zM25 0v-190h50V0H25" id="aM"/><path fill="#e81313" d="M115-3C79 11 28 4 28-45v-112H4v-33h27l15-45h31v45h36v33H77v99c-1 23 16 31 38 25v30" id="aN"/><g id="F"><use transform="matrix(0.04938271604938272,0,0,0.04938271604938272,0,0)" xlink:href="#aJ"/><use transform="matrix(0.04938271604938272,0,0,0.04938271604938272,12.790123456790125,0)" xlink:href="#aK"/><use transform="matrix(0.04938271604938272,0,0,0.04938271604938272,23.60493827160494,0)" xlink:href="#aL"/><use transform="matrix(0.04938271604938272,0,0,0.04938271604938272,34.41975308641975,0)" xlink:href="#aM"/><use transform="matrix(0.04938271604938272,0,0,0.04938271604938272,39.358024691358025,0)" xlink:href="#aN"/></g><path fill="#e81313" d="M4 7l51-268h42L46 7H4" id="aO"/><use transform="matrix(0.04938271604938272,0,0,0.04938271604938272,0,0)" xlink:href="#aO" id="G"/><path fill="#e81313" d="M24 0v-248h195v40H76v63h132v40H76v65h150V0H24" id="aP"/><path fill="#e81313" d="M135-150c-39-12-60 13-60 57V0H25l-1-190h47c2 13-1 29 3 40 6-28 27-53 61-41v41" id="aQ"/><path fill="#e81313" d="M110-194c64 0 96 36 96 99 0 64-35 99-97 99-61 0-95-36-95-99 0-62 34-99 96-99zm-1 164c35 0 45-28 45-65 0-40-10-65-43-65-34 0-45 26-45 65 0 36 10 65 43 65" id="aR"/><g id="H"><use transform="matrix(0.04938271604938272,0,0,0.04938271604938272,0,0)" xlink:href="#aP"/><use transform="matrix(0.04938271604938272,0,0,0.04938271604938272,11.851851851851853,0)" xlink:href="#aQ"/><use transform="matrix(0.04938271604938272,0,0,0.04938271604938272,18.765432098765434,0)" xlink:href="#aQ"/><use transform="matrix(0.04938271604938272,0,0,0.04938271604938272,25.679012345679016,0)" xlink:href="#aR"/><use transform="matrix(0.04938271604938272,0,0,0.04938271604938272,36.49382716049383,0)" xlink:href="#aQ"/></g><path fill="#e81313" d="M25 0v-261h50V0H25" id="aS"/><path fill="#e81313" d="M195-6C206 82 75 100 31 46c-4-6-6-13-8-21l49-6c3 16 16 24 34 25 40 0 42-37 40-79-11 22-30 35-61 35-53 0-70-43-70-97 0-56 18-96 73-97 30 0 46 14 59 34l2-30h47zm-90-29c32 0 41-27 41-63 0-35-9-62-40-62-32 0-39 29-40 63 0 36 9 62 39 62" id="aT"/><g id="I"><use transform="matrix(0.04938271604938272,0,0,0.04938271604938272,0,0)" xlink:href="#aS"/><use transform="matrix(0.04938271604938272,0,0,0.04938271604938272,4.938271604938272,0)" xlink:href="#aR"/><use transform="matrix(0.04938271604938272,0,0,0.04938271604938272,15.753086419753087,0)" xlink:href="#aT"/></g><g id="J"><use transform="matrix(0.06172839506172839,0,0,0.06172839506172839,0,0)" xlink:href="#ag"/><use transform="matrix(0.06172839506172839,0,0,0.06172839506172839,18.456790123456788,0)" xlink:href="#aj"/><use transform="matrix(0.06172839506172839,0,0,0.06172839506172839,30.80246913580247,0)" xlink:href="#ar"/><use transform="matrix(0.06172839506172839,0,0,0.06172839506172839,41.91358024691358,0)" xlink:href="#an"/></g><g id="K"><use transform="matrix(0.06172839506172839,0,0,0.06172839506172839,0,0)" xlink:href="#al"/><use transform="matrix(0.06172839506172839,0,0,0.06172839506172839,6.172839506172839,0)" xlink:href="#am"/><use transform="matrix(0.06172839506172839,0,0,0.06172839506172839,18.51851851851852,0)" xlink:href="#an"/></g><path fill="#3a414a" d="M115-194c55 1 70 41 70 98S169 2 115 4C84 4 66-9 55-30l1 105H24l-1-265h31l2 30c10-21 28-34 59-34zm-8 174c40 0 45-34 45-75s-6-73-45-74c-42 0-51 32-51 76 0 43 10 73 51 73" id="aU"/><g id="L"><use transform="matrix(0.06172839506172839,0,0,0.06172839506172839,0,0)" xlink:href="#aU"/><use transform="matrix(0.06172839506172839,0,0,0.06172839506172839,12.345679012345679,0)" xlink:href="#ao"/><use transform="matrix(0.06172839506172839,0,0,0.06172839506172839,19.691358024691358,0)" xlink:href="#aj"/><use transform="matrix(0.06172839506172839,0,0,0.06172839506172839,32.03703703703704,0)" xlink:href="#ap"/><use transform="matrix(0.06172839506172839,0,0,0.06172839506172839,43.14814814814815,0)" xlink:href="#an"/><use transform="matrix(0.06172839506172839,0,0,0.06172839506172839,55.49382716049383,0)" xlink:href="#av"/><use transform="matrix(0.06172839506172839,0,0,0.06172839506172839,66.60493827160494,0)" xlink:href="#av"/><use transform="matrix(0.06172839506172839,0,0,0.06172839506172839,77.71604938271605,0)" xlink:href="#an"/><use transform="matrix(0.06172839506172839,0,0,0.06172839506172839,90.06172839506173,0)" xlink:href="#ay"/></g><g id="M"><use transform="matrix(0.06172839506172839,0,0,0.06172839506172839,0,0)" xlink:href="#ax"/><use transform="matrix(0.06172839506172839,0,0,0.06172839506172839,6.172839506172839,0)" xlink:href="#aq"/><use transform="matrix(0.06172839506172839,0,0,0.06172839506172839,11.049382716049383,0)" xlink:href="#aA"/><use transform="matrix(0.06172839506172839,0,0,0.06172839506172839,15.925925925925926,0)" xlink:href="#an"/><use transform="matrix(0.06172839506172839,0,0,0.06172839506172839,28.271604938271604,0)" xlink:href="#av"/></g><g id="N"><use transform="matrix(0.06172839506172839,0,0,0.06172839506172839,0,0)" xlink:href="#al"/><use transform="matrix(0.06172839506172839,0,0,0.06172839506172839,6.172839506172839,0)" xlink:href="#aj"/></g><path fill="#3a414a" d="M126-127c33 6 58 20 58 59 0 88-139 92-164 29-3-8-5-16-6-25l32-3c6 27 21 44 54 44 32 0 52-15 52-46 0-38-36-46-79-43v-28c39 1 72-4 72-42 0-27-17-43-46-43-28 0-47 15-49 41l-32-3c6-42 35-63 81-64 48-1 79 21 79 65 0 36-21 52-52 59" id="aV"/><g id="O"><use transform="matrix(0.06172839506172839,0,0,0.06172839506172839,0,0)" xlink:href="#aH"/><use transform="matrix(0.06172839506172839,0,0,0.06172839506172839,14.814814814814813,0)" xlink:href="#aV"/></g><g id="P"><use transform="matrix(0.06172839506172839,0,0,0.06172839506172839,0,0)" xlink:href="#ah"/><use transform="matrix(0.06172839506172839,0,0,0.06172839506172839,12.345679012345679,0)" xlink:href="#ao"/><use transform="matrix(0.06172839506172839,0,0,0.06172839506172839,19.691358024691358,0)" xlink:href="#ap"/><use transform="matrix(0.06172839506172839,0,0,0.06172839506172839,30.80246913580247,0)" xlink:href="#am"/><use transform="matrix(0.06172839506172839,0,0,0.06172839506172839,43.148148148148145,0)" xlink:href="#aq"/><use transform="matrix(0.06172839506172839,0,0,0.06172839506172839,48.02469135802469,0)" xlink:href="#ar"/><use transform="matrix(0.06172839506172839,0,0,0.06172839506172839,59.1358024691358,0)" xlink:href="#an"/></g><path fill="#333" d="M175 0L67-191c6 58 2 128 3 191H24v-248h59L193-55c-6-58-2-129-3-193h46V0h-61" id="aW"/><path fill="#333" d="M140-251c80 0 125 45 125 126S219 4 139 4C58 4 15-44 15-125s44-126 125-126zm-1 214c52 0 73-35 73-88 0-50-21-86-72-86-52 0-73 35-73 86s22 88 72 88" id="aX"/><g id="Q"><use transform="matrix(0.04938271604938272,0,0,0.04938271604938272,0,0)" xlink:href="#aW"/><use transform="matrix(0.04938271604938272,0,0,0.04938271604938272,12.790123456790125,0)" xlink:href="#aX"/></g><path fill="#3a414a" d="M212-179c-10-28-35-45-73-45-59 0-87 40-87 99 0 60 29 101 89 101 43 0 62-24 78-52l27 14C228-24 195 4 139 4 59 4 22-46 18-125c-6-104 99-153 187-111 19 9 31 26 39 46" id="aY"/><path fill="#3a414a" d="M84 4C-5 8 30-112 23-190h32v120c0 31 7 50 39 49 72-2 45-101 50-169h31l1 190h-30c-1-10 1-25-2-33-11 22-28 36-60 37" id="aZ"/><g id="R"><use transform="matrix(0.06172839506172839,0,0,0.06172839506172839,0,0)" xlink:href="#aY"/><use transform="matrix(0.06172839506172839,0,0,0.06172839506172839,15.987654320987653,0)" xlink:href="#aj"/><use transform="matrix(0.06172839506172839,0,0,0.06172839506172839,28.333333333333332,0)" xlink:href="#ak"/><use transform="matrix(0.06172839506172839,0,0,0.06172839506172839,40.67901234567901,0)" xlink:href="#ax"/><use transform="matrix(0.06172839506172839,0,0,0.06172839506172839,46.851851851851855,0)" xlink:href="#aq"/><use transform="matrix(0.06172839506172839,0,0,0.06172839506172839,51.7283950617284,0)" xlink:href="#at"/><use transform="matrix(0.06172839506172839,0,0,0.06172839506172839,64.07407407407408,0)" xlink:href="#aZ"/><use transform="matrix(0.06172839506172839,0,0,0.06172839506172839,76.41975308641976,0)" xlink:href="#ao"/><use transform="matrix(0.06172839506172839,0,0,0.06172839506172839,83.76543209876544,0)" xlink:href="#ah"/><use transform="matrix(0.06172839506172839,0,0,0.06172839506172839,96.11111111111113,0)" xlink:href="#al"/><use transform="matrix(0.06172839506172839,0,0,0.06172839506172839,102.28395061728396,0)" xlink:href="#aq"/><use transform="matrix(0.06172839506172839,0,0,0.06172839506172839,107.16049382716051,0)" xlink:href="#aj"/><use transform="matrix(0.06172839506172839,0,0,0.06172839506172839,119.50617283950619,0)" xlink:href="#ak"/></g><g id="S"><use transform="matrix(0.06172839506172839,0,0,0.06172839506172839,0,0)" xlink:href="#az"/><use transform="matrix(0.06172839506172839,0,0,0.06172839506172839,13.518518518518517,0)" xlink:href="#aq"/><use transform="matrix(0.06172839506172839,0,0,0.06172839506172839,18.39506172839506,0)" xlink:href="#aA"/><use transform="matrix(0.06172839506172839,0,0,0.06172839506172839,23.2716049382716,0)" xlink:href="#an"/><use transform="matrix(0.06172839506172839,0,0,0.06172839506172839,35.61728395061728,0)" xlink:href="#av"/></g><g id="T"><use transform="matrix(0.06172839506172839,0,0,0.06172839506172839,0,0)" xlink:href="#aH"/><use transform="matrix(0.06172839506172839,0,0,0.06172839506172839,14.814814814814813,0)" xlink:href="#ap"/><use transform="matrix(0.06172839506172839,0,0,0.06172839506172839,25.925925925925924,0)" xlink:href="#am"/><use transform="matrix(0.06172839506172839,0,0,0.06172839506172839,38.2716049382716,0)" xlink:href="#an"/><use transform="matrix(0.06172839506172839,0,0,0.06172839506172839,50.61728395061728,0)" xlink:href="#ay"/><use transform="matrix(0.06172839506172839,0,0,0.06172839506172839,62.962962962962955,0)" xlink:href="#aZ"/><use transform="matrix(0.06172839506172839,0,0,0.06172839506172839,75.30864197530863,0)" xlink:href="#aA"/><use transform="matrix(0.06172839506172839,0,0,0.06172839506172839,80.18518518518518,0)" xlink:href="#an"/><use transform="matrix(0.06172839506172839,0,0,0.06172839506172839,92.53086419753086,0)" xlink:href="#ay"/></g><g id="U"><use transform="matrix(0.06172839506172839,0,0,0.06172839506172839,0,0)" xlink:href="#al"/><use transform="matrix(0.06172839506172839,0,0,0.06172839506172839,6.172839506172839,0)" xlink:href="#ao"/><use transform="matrix(0.06172839506172839,0,0,0.06172839506172839,13.518518518518519,0)" xlink:href="#aq"/><use transform="matrix(0.06172839506172839,0,0,0.06172839506172839,18.395061728395063,0)" xlink:href="#at"/><use transform="matrix(0.06172839506172839,0,0,0.06172839506172839,30.74074074074074,0)" xlink:href="#at"/><use transform="matrix(0.06172839506172839,0,0,0.06172839506172839,43.08641975308642,0)" xlink:href="#an"/><use transform="matrix(0.06172839506172839,0,0,0.06172839506172839,55.432098765432094,0)" xlink:href="#ao"/><use transform="matrix(0.06172839506172839,0,0,0.06172839506172839,62.77777777777777,0)" xlink:href="#an"/><use transform="matrix(0.06172839506172839,0,0,0.06172839506172839,75.12345679012346,0)" xlink:href="#ay"/></g><g id="V"><use transform="matrix(0.06172839506172839,0,0,0.06172839506172839,0,0)" xlink:href="#aA"/><use transform="matrix(0.06172839506172839,0,0,0.06172839506172839,4.876543209876543,0)" xlink:href="#aj"/><use transform="matrix(0.06172839506172839,0,0,0.06172839506172839,17.22222222222222,0)" xlink:href="#at"/></g><g id="W"><use transform="matrix(0.06172839506172839,0,0,0.06172839506172839,0,0)" xlink:href="#ag"/><use transform="matrix(0.06172839506172839,0,0,0.06172839506172839,18.456790123456788,0)" xlink:href="#aj"/><use transform="matrix(0.06172839506172839,0,0,0.06172839506172839,30.80246913580247,0)" xlink:href="#ak"/><use transform="matrix(0.06172839506172839,0,0,0.06172839506172839,43.148148148148145,0)" xlink:href="#aq"/><use transform="matrix(0.06172839506172839,0,0,0.06172839506172839,48.02469135802469,0)" xlink:href="#al"/><use transform="matrix(0.06172839506172839,0,0,0.06172839506172839,54.19753086419753,0)" xlink:href="#aj"/><use transform="matrix(0.06172839506172839,0,0,0.06172839506172839,66.54320987654322,0)" xlink:href="#ao"/></g><path fill="#3a414a" d="M127-220V0H93v-220H8v-28h204v28h-85" id="ba"/><g id="X"><use transform="matrix(0.06172839506172839,0,0,0.06172839506172839,0,0)" xlink:href="#ba"/><use transform="matrix(0.06172839506172839,0,0,0.06172839506172839,12.716049382716047,0)" xlink:href="#ao"/><use transform="matrix(0.06172839506172839,0,0,0.06172839506172839,20.061728395061728,0)" xlink:href="#aq"/><use transform="matrix(0.06172839506172839,0,0,0.06172839506172839,24.938271604938272,0)" xlink:href="#at"/><use transform="matrix(0.06172839506172839,0,0,0.06172839506172839,37.28395061728395,0)" xlink:href="#at"/><use transform="matrix(0.06172839506172839,0,0,0.06172839506172839,49.629629629629626,0)" xlink:href="#an"/><use transform="matrix(0.06172839506172839,0,0,0.06172839506172839,61.9753086419753,0)" xlink:href="#ao"/></g><g id="Y"><use transform="matrix(0.06172839506172839,0,0,0.06172839506172839,0,0)" xlink:href="#aj"/><use transform="matrix(0.06172839506172839,0,0,0.06172839506172839,12.345679012345679,0)" xlink:href="#ak"/></g><g id="Z"><use transform="matrix(0.06172839506172839,0,0,0.06172839506172839,0,0)" xlink:href="#aZ"/><use transform="matrix(0.06172839506172839,0,0,0.06172839506172839,12.345679012345679,0)" xlink:href="#aU"/><use transform="matrix(0.06172839506172839,0,0,0.06172839506172839,24.691358024691358,0)" xlink:href="#aA"/><use transform="matrix(0.06172839506172839,0,0,0.06172839506172839,29.5679012345679,0)" xlink:href="#aj"/><use transform="matrix(0.06172839506172839,0,0,0.06172839506172839,41.913580246913575,0)" xlink:href="#ah"/><use transform="matrix(0.06172839506172839,0,0,0.06172839506172839,54.25925925925925,0)" xlink:href="#ay"/></g><g id="aa"><use transform="matrix(0.06172839506172839,0,0,0.06172839506172839,0,0)" xlink:href="#al"/><use transform="matrix(0.06172839506172839,0,0,0.06172839506172839,6.172839506172839,0)" xlink:href="#ao"/><use transform="matrix(0.06172839506172839,0,0,0.06172839506172839,13.518518518518519,0)" xlink:href="#aq"/><use transform="matrix(0.06172839506172839,0,0,0.06172839506172839,18.395061728395063,0)" xlink:href="#at"/><use transform="matrix(0.06172839506172839,0,0,0.06172839506172839,30.74074074074074,0)" xlink:href="#at"/><use transform="matrix(0.06172839506172839,0,0,0.06172839506172839,43.08641975308642,0)" xlink:href="#an"/><use transform="matrix(0.06172839506172839,0,0,0.06172839506172839,55.432098765432094,0)" xlink:href="#ao"/><use transform="matrix(0.06172839506172839,0,0,0.06172839506172839,62.77777777777777,0)" xlink:href="#an"/><use transform="matrix(0.06172839506172839,0,0,0.06172839506172839,75.12345679012346,0)" xlink:href="#ay"/></g><g id="ab"><use transform="matrix(0.06172839506172839,0,0,0.06172839506172839,0,0)" xlink:href="#ay"/><use transform="matrix(0.06172839506172839,0,0,0.06172839506172839,12.345679012345679,0)" xlink:href="#ah"/><use transform="matrix(0.06172839506172839,0,0,0.06172839506172839,24.691358024691358,0)" xlink:href="#al"/><use transform="matrix(0.06172839506172839,0,0,0.06172839506172839,30.864197530864196,0)" xlink:href="#ah"/></g><g id="ac"><use transform="matrix(0.06172839506172839,0,0,0.06172839506172839,0,0)" xlink:href="#aH"/><use transform="matrix(0.06172839506172839,0,0,0.06172839506172839,14.814814814814813,0)" xlink:href="#ap"/><use transform="matrix(0.06172839506172839,0,0,0.06172839506172839,25.925925925925924,0)" xlink:href="#am"/><use transform="matrix(0.06172839506172839,0,0,0.06172839506172839,38.2716049382716,0)" xlink:href="#ay"/><use transform="matrix(0.06172839506172839,0,0,0.06172839506172839,50.61728395061728,0)" xlink:href="#aZ"/><use transform="matrix(0.06172839506172839,0,0,0.06172839506172839,62.962962962962955,0)" xlink:href="#aA"/><use transform="matrix(0.06172839506172839,0,0,0.06172839506172839,67.83950617283949,0)" xlink:href="#an"/><use transform="matrix(0.06172839506172839,0,0,0.06172839506172839,80.18518518518518,0)" xlink:href="#ay"/></g><g id="ad"><use transform="matrix(0.06172839506172839,0,0,0.06172839506172839,0,0)" xlink:href="#ao"/><use transform="matrix(0.06172839506172839,0,0,0.06172839506172839,7.345679012345679,0)" xlink:href="#an"/><use transform="matrix(0.06172839506172839,0,0,0.06172839506172839,19.691358024691358,0)" xlink:href="#ay"/><use transform="matrix(0.06172839506172839,0,0,0.06172839506172839,32.03703703703704,0)" xlink:href="#av"/><use transform="matrix(0.06172839506172839,0,0,0.06172839506172839,43.14814814814815,0)" xlink:href="#am"/><use transform="matrix(0.06172839506172839,0,0,0.06172839506172839,55.49382716049383,0)" xlink:href="#aq"/><use transform="matrix(0.06172839506172839,0,0,0.06172839506172839,60.370370370370374,0)" xlink:href="#ax"/><use transform="matrix(0.06172839506172839,0,0,0.06172839506172839,66.54320987654322,0)" xlink:href="#al"/></g><g id="ae"><use transform="matrix(0.06172839506172839,0,0,0.06172839506172839,0,0)" xlink:href="#aA"/><use transform="matrix(0.06172839506172839,0,0,0.06172839506172839,4.876543209876543,0)" xlink:href="#aj"/><use transform="matrix(0.06172839506172839,0,0,0.06172839506172839,17.22222222222222,0)" xlink:href="#ah"/><use transform="matrix(0.06172839506172839,0,0,0.06172839506172839,29.5679012345679,0)" xlink:href="#ay"/><use transform="matrix(0.06172839506172839,0,0,0.06172839506172839,41.913580246913575,0)" xlink:href="#an"/><use transform="matrix(0.06172839506172839,0,0,0.06172839506172839,54.25925925925925,0)" xlink:href="#ao"/></g></defs></g></svg>